<svg width="73" height="91" viewBox="0 0 73 91" fill="none" xmlns="http://www.w3.org/2000/svg">
<path d="M6.37109 84.8684H3.00781L2.1582 87.2883H1.05078L4.16797 78.8333H5.21094L8.32812 87.2883H7.2207L6.37109 84.8684ZM3.31836 83.9719H6.06055L4.73633 80.1985H4.64258L3.31836 83.9719ZM13.5371 82.9055C13.4512 82.5735 13.2734 82.3059 13.0039 82.1028C12.707 81.8801 12.3418 81.7688 11.9082 81.7688C11.3418 81.7688 10.8906 81.9797 10.5547 82.4016C10.2227 82.8235 10.0566 83.3918 10.0566 84.1067C10.0566 84.8333 10.2246 85.4133 10.5605 85.8469C10.8965 86.2766 11.3457 86.4915 11.9082 86.4915C12.7988 86.4915 13.3418 86.1223 13.5371 85.384H14.5566C14.4629 85.9817 14.1895 86.4622 13.7363 86.8254C13.2598 87.2083 12.6523 87.3997 11.9141 87.3997C11.0273 87.3997 10.3223 87.1028 9.79883 86.509C9.27539 85.9114 9.01367 85.1106 9.01367 84.1067C9.01367 83.1223 9.27539 82.3352 9.79883 81.7454C10.3223 81.1555 11.0254 80.8606 11.9082 80.8606C12.6465 80.8606 13.2578 81.0598 13.7422 81.4583C14.1914 81.8333 14.4629 82.3157 14.5566 82.9055H13.5371ZM17.5918 79.3958V80.9719H19.0566V81.8157H17.5918V85.3899C17.5918 85.761 17.666 86.0305 17.8145 86.1985C17.9629 86.3665 18.2012 86.4504 18.5293 86.4504C18.666 86.4504 18.8184 86.4426 18.9863 86.427V87.2766C18.7637 87.3157 18.5703 87.3352 18.4062 87.3352C17.7539 87.3352 17.2871 87.2043 17.0059 86.9426C16.7246 86.6809 16.584 86.2493 16.584 85.6477V81.8157H15.5234V80.9719H16.584V79.3958H17.5918ZM20.5449 80.9719H21.5527V87.2883H20.5449V80.9719ZM21.0488 79.6887C20.8574 79.6887 20.6914 79.6204 20.5508 79.4836C20.4141 79.343 20.3457 79.177 20.3457 78.9856C20.3457 78.7903 20.4141 78.6243 20.5508 78.4875C20.6914 78.3508 20.8574 78.2825 21.0488 78.2825C21.2441 78.2825 21.4102 78.3508 21.5469 78.4875C21.6836 78.6243 21.752 78.7903 21.752 78.9856C21.752 79.177 21.6836 79.343 21.5469 79.4836C21.4102 79.6204 21.2441 79.6887 21.0488 79.6887ZM24.002 80.9719L25.7305 86.175H25.8242L27.5527 80.9719H28.6309L26.293 87.2883H25.2617L22.9238 80.9719H24.002ZM32.2637 81.7512C31.7598 81.7512 31.3457 81.9211 31.0215 82.261C30.6973 82.6008 30.5156 83.05 30.4766 83.6086H33.957C33.9453 83.05 33.7852 82.6008 33.4766 82.261C33.168 81.9211 32.7637 81.7512 32.2637 81.7512ZM34.9355 85.6536C34.7832 86.2004 34.4746 86.6262 34.0098 86.9309C33.541 87.2434 32.9629 87.3997 32.2754 87.3997C31.4004 87.3997 30.707 87.1047 30.1953 86.5149C29.6836 85.929 29.4277 85.136 29.4277 84.136C29.4277 83.1399 29.6855 82.345 30.2012 81.7512C30.7168 81.1575 31.4082 80.8606 32.2754 80.8606C33.127 80.8606 33.7969 81.1438 34.2852 81.7102C34.7734 82.2766 35.0176 83.052 35.0176 84.0364V84.4231H30.4766V84.47C30.5039 85.095 30.6797 85.5911 31.0039 85.9583C31.332 86.3254 31.7637 86.509 32.2988 86.509C33.1152 86.509 33.6582 86.2239 33.9277 85.6536H34.9355ZM47.2109 84.0188C47.2109 85.0618 46.8828 85.8997 46.2266 86.5325C45.5703 87.1692 44.7012 87.4875 43.6191 87.4875C42.4512 87.4875 41.5195 87.0872 40.8242 86.2864C40.1328 85.4856 39.7871 84.4094 39.7871 83.0579C39.7871 81.7219 40.1367 80.6497 40.8359 79.8411C41.5352 79.0364 42.4629 78.634 43.6191 78.634C44.5566 78.634 45.3438 78.8782 45.9805 79.3665C46.6133 79.8547 47.0059 80.5168 47.1582 81.3528H46.0859C45.7148 80.1887 44.8926 79.6067 43.6191 79.6067C42.7832 79.6067 42.1152 79.9192 41.6152 80.5442C41.1191 81.1692 40.8711 82.0071 40.8711 83.0579C40.8711 84.1243 41.1172 84.9661 41.6094 85.5833C42.1055 86.2043 42.7773 86.5149 43.625 86.5149C44.3828 86.5149 44.9941 86.2942 45.459 85.8528C45.9277 85.4114 46.1621 84.8333 46.1621 84.1184V83.9133H43.7832V82.9875H47.2109V84.0188ZM54.1777 87.2883H53.2168V86.2981H53.123C52.791 87.0325 52.1191 87.3997 51.1074 87.3997C50.4004 87.3997 49.8535 87.1965 49.4668 86.7903C49.084 86.384 48.8926 85.8079 48.8926 85.0618V80.9719H49.9004V84.8157C49.9004 85.925 50.3965 86.4797 51.3887 86.4797C51.9473 86.4797 52.3828 86.3235 52.6953 86.011C53.0117 85.6985 53.1699 85.2649 53.1699 84.7102V80.9719H54.1777V87.2883ZM58.5957 81.7512C58.0918 81.7512 57.6777 81.9211 57.3535 82.261C57.0293 82.6008 56.8477 83.05 56.8086 83.6086H60.2891C60.2773 83.05 60.1172 82.6008 59.8086 82.261C59.5 81.9211 59.0957 81.7512 58.5957 81.7512ZM61.2676 85.6536C61.1152 86.2004 60.8066 86.6262 60.3418 86.9309C59.873 87.2434 59.2949 87.3997 58.6074 87.3997C57.7324 87.3997 57.0391 87.1047 56.5273 86.5149C56.0156 85.929 55.7598 85.136 55.7598 84.136C55.7598 83.1399 56.0176 82.345 56.5332 81.7512C57.0488 81.1575 57.7402 80.8606 58.6074 80.8606C59.459 80.8606 60.1289 81.1438 60.6172 81.7102C61.1055 82.2766 61.3496 83.052 61.3496 84.0364V84.4231H56.8086V84.47C56.8359 85.095 57.0117 85.5911 57.3359 85.9583C57.6641 86.3254 58.0957 86.509 58.6309 86.509C59.4473 86.509 59.9902 86.2239 60.2598 85.6536H61.2676ZM62.7852 82.7004C62.7852 82.177 63.0098 81.7395 63.459 81.3879C63.9082 81.0364 64.4688 80.8606 65.1406 80.8606C65.8008 80.8606 66.3457 81.0129 66.7754 81.3176C67.2051 81.6223 67.4531 82.0344 67.5195 82.554H66.5234C66.4531 82.2961 66.3008 82.093 66.0664 81.9446C65.8203 81.7922 65.5098 81.7161 65.1348 81.7161C64.7559 81.7161 64.4395 81.802 64.1855 81.9739C63.9277 82.1536 63.7988 82.3821 63.7988 82.6594C63.7988 83.0696 64.1641 83.3645 64.8945 83.5442L65.8672 83.7786C66.4688 83.9231 66.9121 84.1301 67.1973 84.3997C67.4863 84.677 67.6309 85.0403 67.6309 85.4895C67.6309 86.0481 67.3887 86.5071 66.9043 86.8665C66.4277 87.2219 65.8262 87.3997 65.0996 87.3997C64.3965 87.3997 63.8203 87.2434 63.3711 86.9309C62.9219 86.6184 62.6699 86.2004 62.6152 85.677H63.6523C63.8359 86.259 64.3301 86.55 65.1348 86.55C65.5605 86.55 65.9102 86.4583 66.1836 86.2747C66.457 86.0911 66.5938 85.8547 66.5938 85.5657C66.5938 85.136 66.2598 84.8391 65.5918 84.675L64.5078 84.4114C63.9102 84.2668 63.4746 84.0598 63.2012 83.7903C62.9238 83.5168 62.7852 83.1536 62.7852 82.7004ZM70.584 79.3958V80.9719H72.0488V81.8157H70.584V85.3899C70.584 85.761 70.6582 86.0305 70.8066 86.1985C70.9551 86.3665 71.1934 86.4504 71.5215 86.4504C71.6582 86.4504 71.8105 86.4426 71.9785 86.427V87.2766C71.7559 87.3157 71.5625 87.3352 71.3984 87.3352C70.7461 87.3352 70.2793 87.2043 69.998 86.9426C69.7168 86.6809 69.5762 86.2493 69.5762 85.6477V81.8157H68.5156V80.9719H69.5762V79.3958H70.584Z" fill="#141212"/>
<circle cx="36.6328" cy="33.6272" r="27.5" fill="#C4C4C4"/>
<circle cx="36.6915" cy="33.6273" r="32.4415" stroke="#FFF0BA" stroke-width="2"/>
<mask id="path-4-inside-1" fill="white">
<path d="M36.6915 1.03846C36.6915 0.567545 37.0734 0.184656 37.5441 0.19666C43.9287 0.359453 50.1399 2.34766 55.4384 5.9346C60.9726 9.68105 65.2573 14.9997 67.7399 21.2045C70.2225 27.4093 70.7891 34.2157 69.3665 40.7455C67.944 47.2754 64.5976 53.2293 59.759 57.8392C54.9205 62.4491 48.8116 65.5035 42.2206 66.6085C35.6295 67.7134 28.8586 66.8182 22.7811 64.0383C16.7037 61.2585 11.5986 56.7214 8.12426 51.0125C4.79786 45.5466 3.11248 39.2465 3.25876 32.8616C3.26955 32.3908 3.67047 32.0278 4.14083 32.0506C4.6112 32.0734 4.97283 32.4733 4.96269 32.9441C4.8325 38.9886 6.43182 44.9512 9.58104 50.1259C12.8782 55.5437 17.723 59.8494 23.4905 62.4875C29.258 65.1256 35.6837 65.9752 41.9386 64.9266C48.1936 63.878 53.9909 60.9793 58.5827 56.6045C63.1745 52.2297 66.3503 46.5794 67.7003 40.3825C69.0503 34.1856 68.5126 27.7264 66.1566 21.838C63.8006 15.9496 59.7344 10.9022 54.4824 7.34679C49.4661 3.9509 43.5878 2.06497 37.5441 1.90259C37.0734 1.88994 36.6915 1.50938 36.6915 1.03846Z"/>
</mask>
<path d="M36.6915 1.03846C36.6915 0.567545 37.0734 0.184656 37.5441 0.19666C43.9287 0.359453 50.1399 2.34766 55.4384 5.9346C60.9726 9.68105 65.2573 14.9997 67.7399 21.2045C70.2225 27.4093 70.7891 34.2157 69.3665 40.7455C67.944 47.2754 64.5976 53.2293 59.759 57.8392C54.9205 62.4491 48.8116 65.5035 42.2206 66.6085C35.6295 67.7134 28.8586 66.8182 22.7811 64.0383C16.7037 61.2585 11.5986 56.7214 8.12426 51.0125C4.79786 45.5466 3.11248 39.2465 3.25876 32.8616C3.26955 32.3908 3.67047 32.0278 4.14083 32.0506C4.6112 32.0734 4.97283 32.4733 4.96269 32.9441C4.8325 38.9886 6.43182 44.9512 9.58104 50.1259C12.8782 55.5437 17.723 59.8494 23.4905 62.4875C29.258 65.1256 35.6837 65.9752 41.9386 64.9266C48.1936 63.878 53.9909 60.9793 58.5827 56.6045C63.1745 52.2297 66.3503 46.5794 67.7003 40.3825C69.0503 34.1856 68.5126 27.7264 66.1566 21.838C63.8006 15.9496 59.7344 10.9022 54.4824 7.34679C49.4661 3.9509 43.5878 2.06497 37.5441 1.90259C37.0734 1.88994 36.6915 1.50938 36.6915 1.03846Z" stroke="#F8C81F" stroke-width="4" mask="url(#path-4-inside-1)"/>
</svg>
