<svg width="12" height="12" viewBox="0 0 12 12" fill="none" xmlns="http://www.w3.org/2000/svg">
<path d="M0.662995 8.30461L0.651367 10.5721C0.651367 10.7 0.697879 10.8279 0.790902 10.9209C0.883925 11.0139 1.0002 11.0604 1.12811 11.0604L3.38392 11.0488C3.51183 11.0488 3.62811 11.0023 3.72113 10.9093L11.5118 3.11857C11.6979 2.93252 11.6979 2.63019 11.5118 2.43252L9.27927 0.176705C9.09323 -0.00934121 8.7909 -0.00934121 8.59323 0.176705L7.03509 1.74647L0.80253 7.9674C0.721135 8.06042 0.662995 8.1767 0.662995 8.30461ZM8.94206 1.19996L10.5118 2.76973L9.62811 3.65345L8.05834 2.08368L8.94206 1.19996ZM1.62811 8.51391L7.3723 2.76973L8.94206 4.3395L3.19788 10.0721L1.61648 10.0837L1.62811 8.51391Z" fill="#0B1100" fill-opacity="0.8"/>
</svg>
