<svg width="12" height="16" viewBox="0 0 12 16" fill="none" xmlns="http://www.w3.org/2000/svg">
<path d="M11.7814 14.9246L9.80387 10.7416C9.76441 10.6581 9.69603 10.5941 9.61403 10.5593L8.63024 10.1213L10.3349 7.26433C10.339 7.25747 10.3428 7.25053 10.3465 7.24344C10.6854 6.58194 10.8572 5.86713 10.8572 5.11897C10.8572 3.86041 10.3637 2.68051 9.46752 1.79665C8.5715 0.912997 7.38445 0.435722 6.12512 0.453417C4.90204 0.47038 3.75044 0.961659 2.8824 1.83682C2.01445 2.71191 1.53246 3.86747 1.52519 5.0907C1.52074 5.83821 1.69737 6.58259 2.03587 7.24341C2.0395 7.25047 2.04334 7.25744 2.04741 7.2643L3.75202 10.1212L2.76255 10.5616C2.6816 10.5976 2.61627 10.6614 2.57841 10.7415L0.600963 14.9246C0.534782 15.0645 0.562702 15.2308 0.670924 15.3415C0.779118 15.4522 0.944704 15.4839 1.08612 15.4209L3.5634 14.318L6.04069 15.4209C6.13652 15.4636 6.24594 15.4636 6.34177 15.4209L8.81906 14.318L11.2963 15.4209C11.3447 15.4425 11.396 15.4529 11.4468 15.4529C11.5444 15.4529 11.6404 15.4143 11.7115 15.3415C11.8197 15.2308 11.8476 15.0646 11.7814 14.9246ZM2.68942 6.89551C2.40436 6.335 2.26172 5.72934 2.26549 5.09513C2.27803 2.97318 4.01411 1.22296 6.13544 1.19357C7.19499 1.17933 8.19392 1.58026 8.94773 2.32373C9.70177 3.06737 10.117 4.06007 10.117 5.119C10.117 5.74475 9.97435 6.34235 9.69299 6.89551L6.50906 12.2319C6.41185 12.3948 6.25441 12.4123 6.19122 12.4123C6.12799 12.4123 5.97055 12.3948 5.87337 12.2319L2.68942 6.89551ZM8.96953 13.5748C8.8737 13.5321 8.76427 13.5321 8.66844 13.5748L6.19116 14.6777L3.71387 13.5748C3.61804 13.5321 3.50862 13.5321 3.41279 13.5748L1.69664 14.3388L3.18896 11.1821L4.13402 10.7615L5.23757 12.6111C5.43984 12.9501 5.79632 13.1526 6.1911 13.1526C6.58588 13.1526 6.94236 12.9501 7.14463 12.6112L8.24818 10.7616L9.19333 11.1823L10.6856 14.3388L8.96953 13.5748Z" fill="#0B1100"/>
</svg>
