<svg width="13" height="13" viewBox="0 0 13 13" fill="none" xmlns="http://www.w3.org/2000/svg">
<g clip-path="url(#clip0)">
<path d="M12.6956 4.98145L7.00745 0.816677C6.89776 0.73638 6.74875 0.73638 6.63911 0.816677L0.950873 4.98145C0.811935 5.08319 0.781748 5.27829 0.88349 5.41722C0.985232 5.55616 1.18035 5.5863 1.31926 5.48461L6.82326 1.45467L12.3272 5.48458C12.3827 5.52525 12.4472 5.54482 12.5112 5.54482C12.6072 5.54482 12.7019 5.50064 12.763 5.4172C12.8648 5.27829 12.8346 5.08319 12.6956 4.98145Z" fill="black"/>
<path d="M11.1885 5.55513C11.0164 5.55513 10.8767 5.69472 10.8767 5.86692V10.8298H8.38247V8.12074C8.38247 7.26105 7.68305 6.56168 6.82341 6.56168C5.96377 6.56168 5.26435 7.2611 5.26435 8.12074V10.8298H2.77006V5.86694C2.77006 5.69475 2.63045 5.55515 2.45827 5.55515C2.2861 5.55515 2.14648 5.69475 2.14648 5.86694V11.1416C2.14648 11.3138 2.2861 11.4534 2.45827 11.4534H5.57614C5.74011 11.4534 5.87429 11.3267 5.88671 11.1659C5.88746 11.1586 5.88793 11.1506 5.88793 11.1416V8.12076C5.88793 7.60493 6.30758 7.18528 6.82341 7.18528C7.33925 7.18528 7.7589 7.60495 7.7589 8.12076V11.1416C7.7589 11.1506 7.75937 11.1584 7.76012 11.1656C7.7724 11.3266 7.90662 11.4534 8.07069 11.4534H11.1886C11.3607 11.4534 11.5003 11.3138 11.5003 11.1416V5.86694C11.5003 5.69472 11.3607 5.55513 11.1885 5.55513Z" fill="black"/>
</g>
<defs>
<clipPath id="clip0">
<rect width="12" height="12" fill="white" transform="translate(0.823242 0.104919)"/>
</clipPath>
</defs>
</svg>
