<svg width="15" height="16" viewBox="0 0 15 16" fill="none" xmlns="http://www.w3.org/2000/svg">
<path d="M10.9396 0.453125H4.06036C1.82144 0.453125 0 2.27456 0 4.51348V11.3929C0 13.6317 1.82144 15.4531 4.06036 15.4531H10.9397C13.1785 15.4531 15 13.6317 15 11.3929V4.51348C15 2.27456 13.1785 0.453125 10.9396 0.453125V0.453125ZM14.1206 11.3929C14.1206 13.1468 12.6936 14.5737 10.9396 14.5737H4.06036C2.30632 14.5737 0.879362 13.1468 0.879362 11.3929V4.51348C0.879362 2.75945 2.30632 1.33249 4.06036 1.33249H10.9397C12.6936 1.33249 14.1206 2.75945 14.1206 4.51348V11.3929Z" fill="#0B1100"/>
</svg>
