<svg width="13" height="13" viewBox="0 0 13 13" fill="none" xmlns="http://www.w3.org/2000/svg">
<path d="M11.3104 10.4436C12.2506 9.38406 12.8232 7.99123 12.8232 6.46661C12.8232 4.88034 12.2034 3.43703 11.1946 2.36303V2.36282C11.1937 2.36158 11.1925 2.36117 11.1919 2.36013C10.141 1.2431 8.66876 0.528062 7.03117 0.471993L7.03097 0.471786L6.91407 0.468683C6.88386 0.467648 6.85366 0.466614 6.82324 0.466614C6.79283 0.466614 6.76262 0.467648 6.73242 0.468683L6.61593 0.471786L6.61573 0.471993C4.97814 0.528062 3.50586 1.2431 2.45504 2.36013C2.45421 2.36117 2.45297 2.36158 2.45235 2.36282C2.45235 2.36282 2.45235 2.36303 2.45214 2.36323C1.4431 3.43703 0.823242 4.88034 0.823242 6.46661C0.823242 7.99123 1.39593 9.38406 2.33607 10.4436C2.33731 10.4454 2.33731 10.4475 2.33876 10.4494C2.34248 10.4545 2.34786 10.457 2.35179 10.4618C3.40821 11.6428 4.92393 12.4035 6.61552 12.4614L6.61573 12.4616L6.73221 12.4648C6.76262 12.4656 6.79283 12.4666 6.82324 12.4666C6.85366 12.4666 6.88386 12.4656 6.91407 12.4645L7.03055 12.4614L7.03076 12.4612C8.72421 12.4031 10.2416 11.6409 11.298 10.4574C11.3007 10.4539 11.305 10.4529 11.3075 10.4492C11.3092 10.4475 11.3092 10.4454 11.3104 10.4436ZM1.24221 6.67351H3.72559C3.74897 7.55055 3.92028 8.40275 4.22524 9.20117C3.63683 9.41406 3.07428 9.69958 2.5471 10.0559C1.77186 9.13372 1.28938 7.95834 1.24221 6.67351ZM2.66007 2.74723C3.17483 3.08199 3.7229 3.35013 4.29455 3.55041C3.94448 4.40013 3.75083 5.31627 3.72559 6.25972H1.24221C1.29166 4.91344 1.81883 3.68758 2.66007 2.74723ZM12.4043 6.25972H9.9209C9.89566 5.31627 9.702 4.40013 9.35193 3.55041C9.92359 3.35013 10.4717 3.08199 10.9864 2.74723C11.8277 3.68758 12.3548 4.91344 12.4043 6.25972ZM6.61635 3.56241C6.01821 3.54544 5.43104 3.45627 4.86372 3.29696C5.2831 2.43668 5.87524 1.6602 6.61635 1.01365V3.56241ZM6.61635 3.9762V6.25972H4.13938C4.16483 5.36013 4.35352 4.48765 4.69097 3.67868C5.3129 3.85889 5.95862 3.95861 6.61635 3.9762ZM7.03014 3.9762C7.68786 3.95861 8.33359 3.8591 8.95572 3.67868C9.29317 4.48765 9.48186 5.36013 9.50731 6.25972H7.03014V3.9762ZM7.03014 3.56241V1.01365C7.77124 1.6602 8.36338 2.43668 8.78276 3.29696C8.21545 3.45627 7.62828 3.54544 7.03014 3.56241ZM9.18373 3.17117C8.78628 2.33841 8.23469 1.57972 7.55172 0.929441C8.76331 1.08792 9.85345 1.63579 10.693 2.44351C10.2163 2.74599 9.71069 2.9893 9.18373 3.17117ZM4.46276 3.17117C3.93579 2.9893 3.43014 2.74599 2.95366 2.44351C3.79304 1.63579 4.88338 1.08792 6.09497 0.929441C5.41179 1.57972 4.86021 2.33841 4.46276 3.17117ZM4.13938 6.67351H6.61635V8.75034C5.93214 8.76855 5.26179 8.8753 4.61752 9.06917C4.32641 8.31296 4.16276 7.50503 4.13938 6.67351ZM6.61635 9.16413V11.9196C5.8231 11.2275 5.20117 10.3867 4.77828 9.45399C5.37145 9.27917 5.98759 9.18192 6.61635 9.16413ZM7.03014 11.9196V9.16413C7.6589 9.18172 8.27504 9.27917 8.86821 9.45379C8.44531 10.3867 7.82338 11.2275 7.03014 11.9196ZM7.03014 8.75034V6.67351H9.5071C9.48373 7.50503 9.32007 8.31296 9.02876 9.06937C8.38469 8.8753 7.71435 8.76855 7.03014 8.75034ZM9.9209 6.67351H12.4043C12.3571 7.95834 11.8748 9.13372 11.0994 10.0559C10.5722 9.69958 10.0097 9.41406 9.42124 9.20117C9.72641 8.40275 9.89752 7.55055 9.9209 6.67351ZM2.82828 10.3658C3.31779 10.0405 3.83897 9.77903 4.38352 9.58351C4.78593 10.4856 5.36359 11.3076 6.09476 12.0038C4.82214 11.8372 3.68317 11.2414 2.82828 10.3658ZM7.55172 12.0038C8.2829 11.3078 8.86055 10.4858 9.26297 9.58351C9.80752 9.77903 10.3285 10.0405 10.8182 10.3658C9.96331 11.2414 8.82435 11.8372 7.55172 12.0038Z" fill="black"/>
</svg>
