<svg width="24" height="35" viewBox="0 0 24 35" fill="none" xmlns="http://www.w3.org/2000/svg">
<path d="M20.0772 3.82289C17.8309 1.57614 15.1198 0.453125 11.9447 0.453125C8.76943 0.453125 6.05866 1.57638 3.81215 3.82289C1.56572 6.06932 0.442383 8.78017 0.442383 11.9554C0.442383 13.5881 0.68946 14.9284 1.18354 15.9768L9.3835 33.3655C9.60823 33.8593 9.95657 34.2488 10.4283 34.5331C10.9001 34.8177 11.4055 34.9602 11.9448 34.9602C12.484 34.9602 12.9896 34.8177 13.4614 34.5331C13.9332 34.2488 14.2886 33.8593 14.5283 33.3655L22.7053 15.9768C23.1996 14.9284 23.4468 13.588 23.4468 11.9554C23.4472 8.78017 22.3241 6.06964 20.0772 3.82289ZM16.0107 16.0217C14.8876 17.1447 13.5323 17.7065 11.9447 17.7065C10.357 17.7065 9.00171 17.1447 7.8783 16.0217C6.75504 14.8983 6.19329 13.543 6.19329 11.9553C6.19329 10.3678 6.75504 9.01229 7.8783 7.88919C9.00171 6.76594 10.3572 6.20419 11.9447 6.20419C13.5323 6.20419 14.8876 6.76594 16.0107 7.88919C17.1339 9.01221 17.6957 10.3678 17.6957 11.9553C17.6957 13.5428 17.134 14.8981 16.0107 16.0217Z" fill="#BABF97"/>
</svg>
