<svg width="20" height="21" viewBox="0 0 20 21" fill="none" xmlns="http://www.w3.org/2000/svg">
<path d="M15.5446 12.8567C14.3943 12.8567 13.3685 13.4049 12.7124 14.252L7.21818 11.1831C7.34692 10.8135 7.41752 10.4148 7.41752 10.0037C7.41752 9.58841 7.34692 9.19389 7.21403 8.82014L12.7041 5.75535C13.3561 6.60668 14.386 7.15901 15.5404 7.15901C17.5089 7.15901 19.116 5.55602 19.116 3.58342C19.116 1.61083 17.513 0.00784302 15.5404 0.00784302C13.5679 0.00784302 11.9649 1.61083 11.9649 3.58342C11.9649 3.99871 12.0355 4.39738 12.1683 4.76698L6.68247 7.83176C6.03047 6.97628 5.00057 6.42811 3.84609 6.42811C1.87765 6.42811 0.270508 8.0311 0.270508 10.0037C0.270508 11.9763 1.87765 13.5793 3.85024 13.5793C5.00473 13.5793 6.03463 13.0269 6.69077 12.1715L12.1808 15.2404C12.0479 15.6142 11.9732 16.017 11.9732 16.4323C11.9732 18.4007 13.5762 20.0078 15.5487 20.0078C17.5213 20.0078 19.1243 18.4049 19.1243 16.4323C19.1243 14.4597 17.5172 12.8567 15.5446 12.8567ZM15.5446 1.13326C16.8984 1.13326 17.9989 2.23376 17.9989 3.58758C17.9989 4.9414 16.8984 6.0419 15.5446 6.0419C14.1908 6.0419 13.0903 4.9414 13.0903 3.58758C13.0903 2.23376 14.1949 1.13326 15.5446 1.13326ZM3.85024 12.458C2.49642 12.458 1.39592 11.3575 1.39592 10.0037C1.39592 8.64987 2.49642 7.54937 3.85024 7.54937C5.20406 7.54937 6.30456 8.64987 6.30456 10.0037C6.30456 11.3575 5.19991 12.458 3.85024 12.458ZM15.5446 18.8824C14.1908 18.8824 13.0903 17.7819 13.0903 16.4281C13.0903 15.0743 14.1908 13.9738 15.5446 13.9738C16.8984 13.9738 17.9989 15.0743 17.9989 16.4281C17.9989 17.7819 16.8984 18.8824 15.5446 18.8824Z" fill="white"/>
</svg>
