<svg width="15" height="16" viewBox="0 0 15 16" fill="none" xmlns="http://www.w3.org/2000/svg">
<path d="M14.999 6.66588C14.9989 6.52183 14.8941 6.39916 14.7519 6.37663L13.6704 6.20527L13.0967 4.82167L13.7396 3.93532C13.8241 3.81872 13.8114 3.65791 13.7095 3.5561L11.8925 1.74031C11.7906 1.63848 11.6297 1.62582 11.5132 1.71052L10.6277 2.35379L9.24313 1.78089L9.07104 0.70001C9.04837 0.557803 8.92573 0.453125 8.78171 0.453125C8.78168 0.453125 8.78162 0.453125 8.78159 0.453125L6.21275 0.45418C6.0687 0.454238 5.94606 0.559033 5.92351 0.701299L5.75218 1.78273L4.36857 2.35646L3.48223 1.71359C3.36565 1.62901 3.20484 1.64176 3.10301 1.74365L1.28722 3.56067C1.18538 3.6626 1.17275 3.82341 1.25742 3.93995L1.90069 4.82545L1.32779 6.21002L0.246914 6.38211C0.104648 6.40476 -5.85692e-05 6.52748 2.45794e-08 6.67153L0.00105471 9.24034C0.00111331 9.38439 0.105908 9.50706 0.248174 9.52959L1.32961 9.70095L1.90333 11.0846L1.26047 11.9709C1.17589 12.0875 1.18863 12.2483 1.29053 12.3501L3.10755 14.1659C3.20947 14.2677 3.37031 14.2804 3.48683 14.1957L4.37232 13.5524L5.75689 14.1253L5.92898 15.2062C5.95163 15.3484 6.07427 15.4531 6.21829 15.4531C6.21832 15.4531 6.21838 15.4531 6.21841 15.4531L8.78722 15.452C8.93127 15.452 9.05391 15.3472 9.07646 15.2049L9.24782 14.1235L10.6314 13.5498L11.5178 14.1926C11.6344 14.2772 11.7952 14.2645 11.897 14.1626L13.7128 12.3455C13.8146 12.2436 13.8272 12.0828 13.7426 11.9663L13.0993 11.0808L13.6722 9.6962L14.7531 9.52411C14.8954 9.50146 15.0001 9.37874 15 9.23469L14.999 6.66588ZM13.4182 9.14334C13.3175 9.15937 13.2325 9.22648 13.1935 9.32064L12.4952 11.0083C12.4563 11.1024 12.469 11.21 12.5289 11.2925L13.1216 12.1083L11.6594 13.5715L10.8427 12.9792C10.7603 12.9194 10.6526 12.9067 10.5585 12.9457L8.87191 13.6451C8.77781 13.6841 8.71072 13.7692 8.69479 13.8698L8.5369 14.8662L6.46834 14.8671L6.30978 13.8713C6.29376 13.7706 6.22664 13.6856 6.13248 13.6466L4.44486 12.9483C4.4088 12.9334 4.37074 12.9261 4.33289 12.9261C4.27195 12.9261 4.21151 12.9451 4.16068 12.982L3.34488 13.5747L1.88168 12.1125L2.47397 11.2958C2.5338 11.2133 2.54645 11.1057 2.50743 11.0116L1.80809 9.32501C1.76906 9.23091 1.68396 9.16382 1.58332 9.14788L0.586934 8.99L0.586084 6.92144L1.58188 6.76288C1.68252 6.74686 1.76757 6.67974 1.80653 6.58558L2.50482 4.89796C2.54379 4.80383 2.53102 4.69619 2.47113 4.61375L1.87849 3.79795L3.34069 2.33475L4.15734 2.92704C4.23984 2.98687 4.34745 2.99958 4.44158 2.96053L6.12814 2.26115C6.22225 2.22213 6.28934 2.13699 6.30527 2.03639L6.46313 1.04L8.53172 1.03915L8.69027 2.03495C8.7063 2.13559 8.77342 2.22063 8.86758 2.2596L10.5552 2.95789C10.6493 2.9968 10.757 2.98408 10.8394 2.9242L11.6552 2.33155L13.1184 3.79376L12.5261 4.61041C12.4663 4.69288 12.4536 4.80052 12.4927 4.89465L13.192 6.58121C13.231 6.67531 13.3161 6.7424 13.4168 6.75834L14.4132 6.91622L14.414 8.98479L13.4182 9.14334Z" fill="#0B1100"/>
</svg>
