<svg width="79" height="79" viewBox="0 0 79 79" fill="none" xmlns="http://www.w3.org/2000/svg">
<circle cx="39.1815" cy="39.3705" r="39.0526" fill="#C4C4C4"/>
<circle cx="64.7899" cy="64.9789" r="13.4442" fill="#BABF97"/>
<line x1="58.5477" y1="64.8486" x2="65.2739" y2="70.1347" stroke="white"/>
<line x1="71.7585" y1="59.7047" x2="64.7777" y2="70.3097" stroke="white"/>
<path d="M24.5752 43.3706V36.3247H25.4541V43.3706H24.5752ZM32.0879 43.5366C31.1309 43.5366 30.374 43.2062 29.8174 42.5454C29.2575 41.8846 28.9775 40.9862 28.9775 39.8501C28.9775 38.714 29.2559 37.814 29.8125 37.1499C30.3691 36.4891 31.126 36.1587 32.083 36.1587C32.8252 36.1587 33.46 36.3703 33.9873 36.7935C34.5146 37.2166 34.8304 37.7684 34.9346 38.4487H34.041C33.9238 37.993 33.6895 37.6333 33.3379 37.3696C32.9863 37.1027 32.568 36.9692 32.083 36.9692C31.4059 36.9692 30.8704 37.228 30.4766 37.7456C30.0794 38.2632 29.8809 38.9647 29.8809 39.8501C29.8809 40.7355 30.0794 41.4354 30.4766 41.9497C30.8737 42.4673 31.4108 42.7261 32.0879 42.7261C32.5794 42.7261 32.9993 42.6089 33.3477 42.3745C33.6992 42.1369 33.9303 41.8146 34.041 41.4077H34.9346C34.8174 42.0555 34.5016 42.5715 33.9873 42.9556C33.4697 43.3429 32.8366 43.5366 32.0879 43.5366ZM41.373 36.1587C42.3724 36.1587 43.1602 36.4907 43.7363 37.1548C44.3092 37.8156 44.5957 38.7124 44.5957 39.8452C44.5957 40.978 44.3109 41.8748 43.7412 42.5356C43.1618 43.203 42.3724 43.5366 41.373 43.5366C40.3672 43.5366 39.5745 43.203 38.9951 42.5356C38.4222 41.8748 38.1357 40.978 38.1357 39.8452C38.1357 38.7124 38.4271 37.814 39.0098 37.1499C39.5892 36.4891 40.377 36.1587 41.373 36.1587ZM41.373 36.9692C40.6569 36.9692 40.0889 37.228 39.6689 37.7456C39.249 38.2632 39.0391 38.9631 39.0391 39.8452C39.0391 40.7274 39.2458 41.4256 39.6592 41.9399C40.0758 42.464 40.6471 42.7261 41.373 42.7261C42.0924 42.7261 42.6605 42.464 43.0771 41.9399C43.4873 41.4224 43.6924 40.7241 43.6924 39.8452C43.6924 38.9598 43.4857 38.2599 43.0723 37.7456C42.6589 37.228 42.0924 36.9692 41.373 36.9692ZM48.124 43.3706V36.3247H48.9785L52.8018 41.8081H52.8799V36.3247H53.749V43.3706H52.8945L49.0713 37.9067H48.9932V43.3706H48.124Z" fill="#313131"/>
</svg>
