<svg width="26" height="27" viewBox="0 0 26 27" fill="none" xmlns="http://www.w3.org/2000/svg">
<path fill-rule="evenodd" clip-rule="evenodd" d="M25.249 24.4113C25.249 25.5819 24.2794 26.5443 23.1001 26.5443H3.07928C1.90004 26.5443 0.930445 25.5819 0.930445 24.4113V9.28066C0.90424 8.29218 1.17503 7.74592 1.74281 7.32104L10.6439 1.28612C12.5569 -0.101214 13.6487 0.0808733 15.5181 1.36416L23.9736 7.01756C24.9694 7.72857 25.1878 8.1968 25.2577 9.36737V24.4113H25.249ZM2.35427 7.8413C1.76028 8.1968 1.73407 8.65636 1.73407 9.36737L1.75154 23.9691C1.75154 24.9489 2.43288 25.7206 3.41995 25.7206H22.7507C23.7378 25.7206 24.4366 24.9662 24.4366 23.9864V9.39338C24.3754 8.27484 24.0522 8.08408 23.2486 7.50313L14.7144 1.70232C13.4653 0.95663 12.5132 0.930617 11.3776 1.70232L2.35427 7.8413Z" fill="white"/>
<path fill-rule="evenodd" clip-rule="evenodd" d="M8.34645 11.3962C8.84435 11.3962 9.2549 11.8124 9.2549 12.3154V17.7346C9.2549 18.2376 8.84435 18.6538 8.34645 18.6538C7.84854 18.6538 7.43799 18.2376 7.43799 17.7346V12.3154C7.43799 11.8124 7.84854 11.3962 8.34645 11.3962ZM8.34645 11.7691C8.01451 11.7691 7.75245 12.0379 7.75245 12.376V17.7C7.75245 18.0294 8.02324 18.3069 8.34645 18.3069C8.67838 18.3069 8.94044 18.0381 8.94044 17.7V12.376C8.94044 12.0379 8.67838 11.7691 8.34645 11.7691Z" fill="white"/>
<path fill-rule="evenodd" clip-rule="evenodd" d="M4.82635 13.9194H5.95318V14.1015H6.10168V14.3703H5.01852C4.93117 14.3703 4.86129 14.431 4.86129 14.5004V15.7316C4.86129 15.801 4.93117 15.8617 5.01852 15.8617H6.10168V16.1305H5.95318V16.3126H4.82635C4.58177 16.3126 4.38086 16.1132 4.38086 15.8704V14.353C4.38086 14.1189 4.58177 13.9194 4.82635 13.9194ZM17.1254 14.2316V14.3703H9.21137V14.2316H9.12402V13.9194H17.1778V14.2316H17.1254ZM20.1477 14.1015H20.2525V13.9194H21.458C21.7026 13.9194 21.9035 14.1189 21.9035 14.3616V15.879C21.9035 16.1218 21.7026 16.3213 21.458 16.3213H20.2525V16.1392H20.1477V15.8704H21.3095C21.3968 15.8704 21.4667 15.8097 21.4667 15.7403V14.5091C21.4667 14.4397 21.3968 14.379 21.3095 14.379H20.1477V14.1015ZM9.21137 16.0091V15.8704H17.1254V16.0091H17.1778V16.3213H9.12402V16.0091H9.21137Z" fill="white"/>
<path fill-rule="evenodd" clip-rule="evenodd" d="M6.71303 11.7692C7.17599 11.7692 7.56033 12.1507 7.56033 12.6102V17.5613C7.56033 18.0209 7.17599 18.4024 6.71303 18.4024C6.25007 18.4024 5.86572 18.0209 5.86572 17.5613V12.6102C5.86572 12.1507 6.25007 11.7692 6.71303 11.7692ZM6.71303 12.1854C6.45097 12.1854 6.24133 12.4282 6.24133 12.723V17.4573C6.24133 17.7521 6.45971 17.9949 6.71303 17.9949C6.97508 17.9949 7.18472 17.7521 7.18472 17.4573V12.723C7.18472 12.4282 6.97508 12.1854 6.71303 12.1854Z" fill="white"/>
<path fill-rule="evenodd" clip-rule="evenodd" d="M8.34645 11.3269C8.84435 11.3269 9.2549 11.7518 9.2549 12.2634V17.7867C9.2549 18.2983 8.84435 18.7232 8.34645 18.7232C7.84854 18.7232 7.43799 18.2983 7.43799 17.7867V12.2634C7.43799 11.7431 7.84854 11.3269 8.34645 11.3269ZM8.34645 11.7865C8.04945 11.7865 7.80486 12.0553 7.80486 12.3761V17.5786C7.80486 17.8994 8.04945 18.1682 8.34645 18.1682C8.64344 18.1682 8.88802 17.8994 8.88802 17.5786V12.3761C8.88802 12.0553 8.64344 11.7865 8.34645 11.7865Z" fill="white"/>
<path fill-rule="evenodd" clip-rule="evenodd" d="M17.824 11.3269C18.3219 11.3269 18.7324 11.7518 18.7324 12.2634V17.7867C18.7324 18.2983 18.3219 18.7232 17.824 18.7232C17.3261 18.7232 16.9155 18.2983 16.9155 17.7867V12.2634C16.9155 11.7431 17.3261 11.3269 17.824 11.3269ZM17.824 11.7865C17.527 11.7865 17.2824 12.0553 17.2824 12.3761V17.5786C17.2824 17.8994 17.527 18.1682 17.824 18.1682C18.121 18.1682 18.3655 17.8994 18.3655 17.5786V12.3761C18.3655 12.0553 18.121 11.7865 17.824 11.7865Z" fill="white"/>
<path fill-rule="evenodd" clip-rule="evenodd" d="M19.4313 11.7692C19.8942 11.7692 20.2786 12.1507 20.2786 12.6102V17.5613C20.2786 18.0209 19.8942 18.4024 19.4313 18.4024C18.9683 18.4024 18.584 18.0209 18.584 17.5613V12.6102C18.584 12.1507 18.9596 11.7692 19.4313 11.7692ZM19.4313 12.1854C19.1692 12.1854 18.9596 12.4282 18.9596 12.723V17.4573C18.9596 17.7521 19.178 17.9949 19.4313 17.9949C19.6933 17.9949 19.903 17.7521 19.903 17.4573V12.723C19.903 12.4282 19.6933 12.1854 19.4313 12.1854Z" fill="white"/>
</svg>
