<svg width="25" height="26" viewBox="0 0 25 26" fill="none" xmlns="http://www.w3.org/2000/svg">
<path fill-rule="evenodd" clip-rule="evenodd" d="M1.54217 1.72644H23.0456C23.7053 1.72644 24.245 2.26522 24.245 2.92373V24.2184C24.245 24.8769 23.7053 25.4157 23.0456 25.4157H1.54217C0.882501 25.4157 0.342773 24.8769 0.342773 24.2184V2.92373C0.342773 2.26522 0.882501 1.72644 1.54217 1.72644ZM23.3969 20.1391L19.2332 24.5862H22.8571C23.157 24.5862 23.4054 24.3381 23.4054 24.0388V20.1391H23.3969ZM22.9685 19.4549H19.3532C18.9591 19.4549 18.6336 19.6858 18.6421 20.1391V24.0217L22.9685 19.4549ZM18.1024 24.5862L18.0853 20.0108C18.0767 19.1898 18.685 18.9076 19.259 18.9247H23.3883V3.12043C23.3883 2.82111 23.1398 2.5731 22.84 2.5731H1.73921C1.43936 2.5731 1.19092 2.82111 1.19092 3.12043V24.0388C1.19092 24.3381 1.43936 24.5862 1.73921 24.5862H18.1024Z" fill="white"/>
<path fill-rule="evenodd" clip-rule="evenodd" d="M3.8295 0.110107C3.96657 0.110107 4.07795 0.221284 4.07795 0.358117V3.88158C4.07795 4.01841 3.96657 4.12959 3.8295 4.12959C3.69243 4.12959 3.58105 4.01841 3.58105 3.88158V0.358117C3.58105 0.221284 3.69243 0.110107 3.8295 0.110107Z" fill="white"/>
<path fill-rule="evenodd" clip-rule="evenodd" d="M5.99692 0.110107C6.134 0.110107 6.24537 0.221284 6.24537 0.358117V3.88158C6.24537 4.01841 6.134 4.12959 5.99692 4.12959C5.85985 4.12959 5.74848 4.01841 5.74848 3.88158V0.358117C5.73991 0.221284 5.85985 0.110107 5.99692 0.110107Z" fill="white"/>
<path fill-rule="evenodd" clip-rule="evenodd" d="M8.16492 0.110107C8.302 0.110107 8.41337 0.221284 8.41337 0.358117V3.88158C8.41337 4.01841 8.302 4.12959 8.16492 4.12959C8.02785 4.12959 7.91648 4.01841 7.91648 3.88158V0.358117C7.90791 0.221284 8.01928 0.110107 8.16492 0.110107Z" fill="white"/>
<path fill-rule="evenodd" clip-rule="evenodd" d="M10.3573 0.110107C10.4944 0.110107 10.6058 0.221284 10.6058 0.358117V3.88158C10.6058 4.01841 10.4944 4.12959 10.3573 4.12959C10.2202 4.12959 10.1089 4.01841 10.1089 3.88158V0.358117C10.1003 0.221284 10.2117 0.110107 10.3573 0.110107Z" fill="white"/>
<path fill-rule="evenodd" clip-rule="evenodd" d="M12.517 0.110107C12.6541 0.110107 12.7654 0.221284 12.7654 0.358117V3.88158C12.7654 4.01841 12.6541 4.12959 12.517 4.12959C12.3799 4.12959 12.2686 4.01841 12.2686 3.88158V0.358117C12.2686 0.221284 12.3799 0.110107 12.517 0.110107Z" fill="white"/>
<path fill-rule="evenodd" clip-rule="evenodd" d="M14.5209 0.110107C14.658 0.110107 14.7694 0.221284 14.7694 0.358117V3.88158C14.7694 4.01841 14.658 4.12959 14.5209 4.12959C14.3838 4.12959 14.2725 4.01841 14.2725 3.88158V0.358117C14.2725 0.221284 14.3838 0.110107 14.5209 0.110107Z" fill="white"/>
<path fill-rule="evenodd" clip-rule="evenodd" d="M16.7055 0.110107C16.8425 0.110107 16.9539 0.221284 16.9539 0.358117V3.88158C16.9539 4.01841 16.8425 4.12959 16.7055 4.12959C16.5684 4.12959 16.457 4.01841 16.457 3.88158V0.358117C16.457 0.221284 16.5684 0.110107 16.7055 0.110107Z" fill="white"/>
<path fill-rule="evenodd" clip-rule="evenodd" d="M18.8305 0.110107C18.9676 0.110107 19.0789 0.221284 19.0789 0.358117V3.88158C19.0789 4.01841 18.9676 4.12959 18.8305 4.12959C18.6934 4.12959 18.582 4.01841 18.582 3.88158V0.358117C18.582 0.221284 18.6934 0.110107 18.8305 0.110107Z" fill="white"/>
<path fill-rule="evenodd" clip-rule="evenodd" d="M20.9379 0.110107C21.075 0.110107 21.1863 0.221284 21.1863 0.358117V3.88158C21.1863 4.01841 21.075 4.12959 20.9379 4.12959C20.8008 4.12959 20.6895 4.01841 20.6895 3.88158V0.358117C20.6895 0.221284 20.8008 0.110107 20.9379 0.110107Z" fill="white"/>
<path d="M6.91344 7.13135H4.32617V9.71408H6.91344V7.13135Z" fill="white"/>
<path d="M10.4349 7.13135H7.84766V9.71408H10.4349V7.13135Z" fill="white"/>
<path d="M13.8099 7.13135H11.2227V9.71408H13.8099V7.13135Z" fill="white"/>
<path d="M17.1683 7.13135H14.5811V9.71408H17.1683V7.13135Z" fill="#6A7652"/>
<path d="M20.5521 7.13135H17.9648V9.71408H20.5521V7.13135Z" fill="white"/>
<path d="M6.91344 10.595H4.32617V13.1777H6.91344V10.595Z" fill="white"/>
<path d="M10.4349 10.595H7.84766V13.1777H10.4349V10.595Z" fill="white"/>
<path d="M13.8099 10.595H11.2227V13.1777H13.8099V10.595Z" fill="white"/>
<path d="M17.1683 10.595H14.5811V13.1777H17.1683V10.595Z" fill="white"/>
<path d="M20.5521 10.595H17.9648V13.1777H20.5521V10.595Z" fill="white"/>
<path d="M6.91344 14.0157H4.32617V16.5985H6.91344V14.0157Z" fill="white"/>
<path d="M10.4349 14.0157H7.84766V16.5985H10.4349V14.0157Z" fill="white"/>
<path d="M13.8099 14.0157H11.2227V16.5985H13.8099V14.0157Z" fill="white"/>
<path d="M17.1683 14.0157H14.5811V16.5985H17.1683V14.0157Z" fill="white"/>
<path d="M20.5521 14.0157H17.9648V16.5985H20.5521V14.0157Z" fill="white"/>
<path d="M6.91344 17.3939H4.32617V19.9766H6.91344V17.3939Z" fill="white"/>
<path d="M10.4349 17.3939H7.84766V19.9766H10.4349V17.3939Z" fill="#6A7652"/>
<path d="M13.8099 17.3939H11.2227V19.9766H13.8099V17.3939Z" fill="#BBBF98"/>
</svg>
