<svg width="23" height="24" viewBox="0 0 23 24" fill="none" xmlns="http://www.w3.org/2000/svg">
<path fill-rule="evenodd" clip-rule="evenodd" d="M11.9416 4.52698C14.6367 4.52698 16.8168 7.0382 16.8168 10.1312C16.8168 13.2242 14.6367 15.7354 11.9416 15.7354C9.2465 15.7354 7.06642 13.2242 7.06642 10.1312C7.05937 7.0382 9.2465 4.52698 11.9416 4.52698ZM11.9416 5.08666C9.5146 5.08666 7.55324 7.3475 7.55324 10.1312C7.55324 12.9149 9.52166 15.1757 11.9416 15.1757C14.3686 15.1757 16.33 12.9149 16.33 10.1312C16.33 7.3475 14.3616 5.08666 11.9416 5.08666Z" fill="white"/>
<path fill-rule="evenodd" clip-rule="evenodd" d="M9.08377 14.5056C8.67457 16.656 3.07269 16.332 3.81349 18.5412C6.82609 24.4769 16.9222 25.0145 19.9489 18.4823C20.598 16.3761 15.2712 16.656 14.9538 14.4541C14.9538 14.4246 14.9467 14.4025 14.9467 14.373L14.5869 14.7118C14.5869 14.7486 14.5939 14.7854 14.601 14.8223C15.1372 17.1052 20.2593 16.8548 19.4197 18.5486C16.4847 24.0424 7.30585 23.7846 4.34263 18.5486C3.59478 16.7959 8.858 17.1641 9.46476 14.8444L9.08377 14.5056Z" fill="white"/>
<path fill-rule="evenodd" clip-rule="evenodd" d="M11.8285 0.417725C17.8748 0.417725 22.7712 5.52855 22.7712 11.8398C22.7712 18.151 17.8748 23.2618 11.8285 23.2618C5.7821 23.2618 0.885742 18.151 0.885742 11.8398C0.885742 5.53591 5.7821 0.417725 11.8285 0.417725ZM11.8285 1.05842C6.12075 1.05842 1.4925 5.8894 1.4925 11.8471C1.4925 17.8048 6.12075 22.6284 11.8285 22.6284C17.5362 22.6284 22.1644 17.7975 22.1644 11.8398C22.1644 5.88203 17.5362 1.05842 11.8285 1.05842Z" fill="white"/>
</svg>
