<svg width="18" height="26" viewBox="0 0 18 26" fill="none" xmlns="http://www.w3.org/2000/svg">
<path fill-rule="evenodd" clip-rule="evenodd" d="M12.9302 22.8608C14.1155 22.8608 15.0831 21.9638 15.0831 20.8691C15.0831 19.7745 14.1155 18.8774 12.9302 18.8774C11.7449 18.8774 10.7773 19.7745 10.7773 20.8691C10.7854 21.9638 11.7449 22.8608 12.9302 22.8608Z" fill="white"/>
<path fill-rule="evenodd" clip-rule="evenodd" d="M6.46316 14.1339C7.78552 14.1339 8.85792 13.1381 8.85792 11.9142C8.85792 10.6903 7.77746 9.69446 6.46316 9.69446C5.14081 9.69446 4.0684 10.6903 4.0684 11.9142C4.06034 13.1381 5.14081 14.1339 6.46316 14.1339Z" fill="white"/>
<path fill-rule="evenodd" clip-rule="evenodd" d="M11.5673 18.0793C11.7366 18.2085 11.8817 18.353 12.0027 18.5126L11.8172 18.5886C11.7044 18.4518 11.5834 18.3301 11.4383 18.2161C10.3497 17.3571 8.72905 17.4939 7.81791 18.5202C6.90677 19.5464 7.05191 21.0744 8.14043 21.9334C8.89031 22.5264 9.89821 22.648 10.7448 22.3211L10.8658 22.4731C9.93852 22.838 8.83387 22.7164 8.01142 22.0702C6.84226 21.1428 6.681 19.5008 7.66471 18.3986C8.65648 17.3039 10.3981 17.1595 11.5673 18.0793Z" fill="white"/>
<path fill-rule="evenodd" clip-rule="evenodd" d="M11.1728 18.5353C11.2696 18.6113 11.3583 18.695 11.4308 18.7786L11.2938 18.847C11.2293 18.771 11.1486 18.7026 11.068 18.6418C10.2214 17.9728 8.95545 18.0792 8.23783 18.8774C7.52826 19.6756 7.64115 20.8691 8.48778 21.5457C9.05221 21.9866 9.79402 22.093 10.4391 21.8801L10.5036 22.0094C9.81015 22.2374 9.00383 22.131 8.39909 21.6521C7.48795 20.9299 7.35894 19.6452 8.12494 18.7862C8.89094 17.9272 10.2536 17.8132 11.1728 18.5353Z" fill="white"/>
<path fill-rule="evenodd" clip-rule="evenodd" d="M6.43102 9.00269C8.17266 9.00269 9.57565 10.333 9.57565 11.975C9.57565 13.617 8.1646 14.9397 6.42296 14.9397C4.68131 14.9397 3.27832 13.6094 3.27832 11.9674C3.27832 10.3254 4.68937 9.00269 6.43102 9.00269ZM6.43102 9.21554C4.81838 9.21554 3.50409 10.447 3.50409 11.9674C3.50409 13.4878 4.81032 14.7269 6.42296 14.7269C8.03559 14.7269 9.34988 13.4954 9.34988 11.975C9.34988 10.447 8.04365 9.21554 6.43102 9.21554Z" fill="white"/>
<path fill-rule="evenodd" clip-rule="evenodd" d="M6.43099 9.65641C7.7856 9.65641 8.89026 10.6979 8.8822 11.975C8.8822 13.2521 7.77754 14.2936 6.42293 14.286C5.06832 14.286 3.96366 13.2445 3.97172 11.9674C3.97172 10.6903 5.07638 9.64881 6.43099 9.65641ZM6.43099 9.81605C5.17314 9.81605 4.14911 10.7815 4.14911 11.9674C4.14911 13.1533 5.17314 14.1187 6.43099 14.1187C7.68885 14.1187 8.71287 13.1533 8.71287 11.9674C8.71287 10.7815 7.68885 9.81605 6.43099 9.81605Z" fill="white"/>
<path fill-rule="evenodd" clip-rule="evenodd" d="M6.43102 9.00269C8.17266 9.00269 9.57565 10.333 9.57565 11.975C9.57565 13.617 8.1646 14.9397 6.42296 14.9397C4.68131 14.9397 3.27832 13.6094 3.27832 11.9674C3.27832 10.3254 4.68937 9.00269 6.43102 9.00269ZM6.43102 9.21554C4.81838 9.21554 3.50409 10.447 3.50409 11.9674C3.50409 13.4878 4.81032 14.7269 6.42296 14.7269C8.03559 14.7269 9.34988 13.4954 9.34988 11.975C9.34988 10.447 8.04365 9.21554 6.43102 9.21554Z" fill="white"/>
<path fill-rule="evenodd" clip-rule="evenodd" d="M6.43099 9.65641C7.7856 9.65641 8.89026 10.6979 8.8822 11.975C8.8822 13.2521 7.77754 14.2936 6.42293 14.286C5.06832 14.286 3.96366 13.2445 3.97172 11.9674C3.97172 10.6903 5.07638 9.64881 6.43099 9.65641ZM6.43099 9.81605C5.17314 9.81605 4.14911 10.7815 4.14911 11.9674C4.14911 13.1533 5.17314 14.1187 6.43099 14.1187C7.68885 14.1187 8.71287 13.1533 8.71287 11.9674C8.71287 10.7815 7.68885 9.81605 6.43099 9.81605Z" fill="white"/>
<path fill-rule="evenodd" clip-rule="evenodd" d="M14.1714 18.5659C15.526 19.25 16.034 20.8388 15.3083 22.1159C14.5827 23.393 12.8975 23.8719 11.5429 23.1878C10.1882 22.5036 9.68027 20.9148 10.4059 19.6377C11.1316 18.3606 12.8168 17.8817 14.1714 18.5659ZM14.0827 18.7255C12.8249 18.0869 11.2606 18.5355 10.5833 19.7213C9.90603 20.9072 10.3818 22.382 11.6396 23.0205C12.8975 23.6591 14.4617 23.2106 15.139 22.0247C15.8082 20.8388 15.3406 19.3641 14.0827 18.7255Z" fill="white"/>
<path fill-rule="evenodd" clip-rule="evenodd" d="M13.8816 19.0751C14.9379 19.6072 15.333 20.8463 14.7686 21.8422C14.2041 22.838 12.8898 23.2105 11.8336 22.6784C10.7773 22.1462 10.3822 20.9071 10.9466 19.9113C11.511 18.9079 12.8253 18.5354 13.8816 19.0751ZM13.809 19.1967C12.8253 18.7026 11.6078 19.0447 11.0756 19.9721C10.5515 20.8995 10.9144 22.0474 11.8981 22.5491C12.8818 23.0433 14.0993 22.7012 14.6315 21.7737C15.1637 20.8463 14.7928 19.6984 13.809 19.1967Z" fill="white"/>
<path d="M6.48736 12.9708C7.0262 12.9708 7.46301 12.5556 7.46301 12.0434C7.46301 11.5312 7.0262 11.116 6.48736 11.116C5.94853 11.116 5.51172 11.5312 5.51172 12.0434C5.51172 12.5556 5.94853 12.9708 6.48736 12.9708Z" fill="#BBBF98"/>
<path fill-rule="evenodd" clip-rule="evenodd" d="M7.08389 12.0206V12.1194V12.5299H7.20484V12.5907H7.08389V12.7808H7.01133V12.5907H6.67268H6.66462H6.58398L7.08389 12.0206ZM6.72912 12.5299H7.01133V12.203L6.72912 12.5299ZM7.43061 12.6743C7.48705 12.7123 7.55155 12.7275 7.608 12.7275C7.63218 12.7275 7.65637 12.7275 7.68056 12.7199C7.70475 12.7123 7.72088 12.7047 7.74507 12.6895C7.76119 12.6743 7.77732 12.6591 7.78538 12.6439C7.79345 12.6211 7.80151 12.5983 7.80151 12.5755C7.80151 12.5223 7.78538 12.4843 7.74507 12.4539C7.70475 12.4235 7.64831 12.4159 7.57574 12.4159H7.51124V12.3551H7.56768C7.64025 12.3551 7.68863 12.3399 7.72088 12.317C7.75313 12.2942 7.77732 12.2562 7.77732 12.203C7.77732 12.1574 7.76119 12.127 7.73701 12.1042C7.71282 12.0814 7.6725 12.0662 7.62412 12.0662C7.56768 12.0662 7.51124 12.0814 7.46286 12.1194V12.051C7.5193 12.0206 7.57574 12.0054 7.64025 12.0054C7.66444 12.0054 7.69669 12.0054 7.72088 12.013C7.74507 12.0206 7.76926 12.0282 7.78538 12.0434C7.80151 12.0586 7.81764 12.0738 7.83376 12.0966C7.84183 12.1194 7.84989 12.1422 7.84989 12.1726C7.84989 12.2714 7.79345 12.3399 7.68863 12.3627C7.71282 12.3627 7.737 12.3703 7.76119 12.3779C7.78538 12.3855 7.80151 12.4007 7.81764 12.4159C7.83376 12.4311 7.84989 12.4539 7.85795 12.4691C7.86601 12.4919 7.87408 12.5147 7.87408 12.5451C7.87408 12.5831 7.86601 12.6135 7.84989 12.6439C7.83376 12.6743 7.81764 12.6971 7.79345 12.7123C7.76926 12.7275 7.73701 12.7427 7.70475 12.758C7.6725 12.7656 7.64025 12.7732 7.59993 12.7732C7.53543 12.7732 7.47092 12.758 7.42255 12.7351L7.43061 12.6743Z" fill="black"/>
<path fill-rule="evenodd" clip-rule="evenodd" d="M5.375 13.0848L5.39112 13.1L7.5601 10.9183L7.53591 10.9031L5.375 13.0848Z" fill="black"/>
<path fill-rule="evenodd" clip-rule="evenodd" d="M5.12468 11.8078C5.11662 11.8078 5.10855 11.8078 5.10049 11.8154C5.09243 11.823 5.08437 11.823 5.08437 11.8306C5.0763 11.8382 5.0763 11.8458 5.06824 11.8534C5.06018 11.861 5.06018 11.8686 5.05211 11.8762C5.04405 11.8838 5.03599 11.8914 5.03599 11.899C5.02792 11.9066 5.01986 11.9142 5.0118 11.9142C5.00373 11.9142 4.98761 11.9218 4.97954 11.9142C4.95535 11.9142 4.93923 11.899 4.93117 11.8838C4.91504 11.8686 4.91504 11.8458 4.91504 11.823C4.91504 11.8078 4.9231 11.7926 4.93117 11.785C4.93923 11.7698 4.94729 11.7622 4.95535 11.7546L4.97954 11.7774C4.96342 11.7926 4.95535 11.8078 4.94729 11.8306C4.94729 11.8458 4.94729 11.8534 4.95535 11.8686C4.96342 11.8762 4.97148 11.8838 4.97954 11.8838C4.98761 11.8838 4.99567 11.8838 5.00373 11.8762C5.0118 11.8686 5.01986 11.8686 5.01986 11.861C5.02792 11.8534 5.02792 11.8458 5.03599 11.8382C5.04405 11.8306 5.04405 11.823 5.05211 11.8154C5.06018 11.8078 5.06018 11.8002 5.06824 11.7926C5.0763 11.785 5.08437 11.7774 5.09243 11.7774C5.10049 11.7774 5.11662 11.7698 5.12468 11.7774C5.14887 11.7774 5.165 11.7926 5.17306 11.8078C5.18112 11.823 5.18919 11.8458 5.18919 11.8686C5.18919 11.8838 5.18112 11.899 5.17306 11.9142C5.165 11.9294 5.14887 11.937 5.14081 11.9446L5.11662 11.9218C5.12468 11.9142 5.14081 11.9066 5.14081 11.899C5.14887 11.8914 5.15693 11.8762 5.15693 11.861C5.15693 11.8458 5.15693 11.8306 5.14887 11.823C5.14887 11.8154 5.14081 11.8078 5.12468 11.8078ZM5.24563 11.3745L5.34239 11.4277L5.32626 11.4581L5.08437 11.3289C5.09243 11.3213 5.09243 11.3137 5.10049 11.2985C5.10855 11.2909 5.11662 11.2757 5.11662 11.2681C5.13274 11.2376 5.15693 11.2224 5.18112 11.2148C5.20531 11.2072 5.22144 11.2148 5.24563 11.2224C5.26982 11.23 5.27788 11.2528 5.28595 11.2757C5.29401 11.2985 5.28594 11.3213 5.26982 11.3517C5.26175 11.3593 5.25369 11.3669 5.24563 11.3745ZM5.14081 11.2757C5.14081 11.2833 5.13274 11.2909 5.11662 11.3137L5.21338 11.3669C5.22144 11.3517 5.2295 11.3441 5.23757 11.3365C5.24563 11.3213 5.25369 11.3061 5.24563 11.2909C5.24563 11.2757 5.23756 11.2681 5.22144 11.2604C5.20531 11.2528 5.18919 11.2528 5.18112 11.2528C5.165 11.2452 5.15693 11.2605 5.14081 11.2757ZM5.55203 10.9716C5.52784 10.9412 5.51978 10.9032 5.52784 10.8728C5.5359 10.8347 5.55203 10.8043 5.58428 10.7815C5.61653 10.7587 5.65685 10.7511 5.6891 10.7587C5.72942 10.7663 5.76167 10.7815 5.78586 10.8195C5.81005 10.85 5.81811 10.888 5.81005 10.9184C5.80199 10.9564 5.78586 10.9868 5.75361 11.002C5.72136 11.0248 5.68104 11.0324 5.64879 11.0248C5.60847 11.0172 5.57622 11.002 5.55203 10.9716ZM5.58428 10.9488C5.60041 10.9716 5.6246 10.9868 5.65685 10.9944C5.6891 11.002 5.71329 10.9944 5.73748 10.9792C5.76167 10.964 5.7778 10.9412 5.7778 10.9108C5.78586 10.8804 5.7778 10.8576 5.75361 10.8347C5.73748 10.8119 5.71329 10.7967 5.68104 10.7891C5.64879 10.7815 5.6246 10.7891 5.60041 10.8043C5.57622 10.8195 5.56009 10.8423 5.56009 10.8728C5.56009 10.8956 5.56815 10.926 5.58428 10.9488ZM6.22127 10.5763L6.12451 10.5915L6.11645 10.5611L6.34222 10.5231L6.35028 10.5535L6.25353 10.5687L6.29384 10.7967L6.26159 10.8043L6.22127 10.5763Z" fill="black"/>
<path d="M5.16484 12.6288C5.19601 12.6288 5.22128 12.6049 5.22128 12.5756C5.22128 12.5462 5.19601 12.5223 5.16484 12.5223C5.13367 12.5223 5.1084 12.5462 5.1084 12.5756C5.1084 12.6049 5.13367 12.6288 5.16484 12.6288Z" fill="black"/>
<path d="M6.96366 10.8043C6.99484 10.8043 7.02011 10.7805 7.02011 10.7511C7.02011 10.7217 6.99484 10.6979 6.96366 10.6979C6.93249 10.6979 6.90723 10.7217 6.90723 10.7511C6.90723 10.7805 6.93249 10.8043 6.96366 10.8043Z" fill="black"/>
<path fill-rule="evenodd" clip-rule="evenodd" d="M7.08389 12.0206V12.1194V12.5299H7.20484V12.5907H7.08389V12.7808H7.01133V12.5907H6.67268H6.66462H6.58398L7.08389 12.0206ZM6.72912 12.5299H7.01133V12.203L6.72912 12.5299ZM7.43061 12.6743C7.48705 12.7123 7.55155 12.7275 7.608 12.7275C7.63218 12.7275 7.65637 12.7275 7.68056 12.7199C7.70475 12.7123 7.72088 12.7047 7.74507 12.6895C7.76119 12.6743 7.77732 12.6591 7.78538 12.6439C7.79345 12.6211 7.80151 12.5983 7.80151 12.5755C7.80151 12.5223 7.78538 12.4843 7.74507 12.4539C7.70475 12.4235 7.64831 12.4159 7.57574 12.4159H7.51124V12.3551H7.56768C7.64025 12.3551 7.68863 12.3399 7.72088 12.317C7.75313 12.2942 7.77732 12.2562 7.77732 12.203C7.77732 12.1574 7.76119 12.127 7.73701 12.1042C7.71282 12.0814 7.6725 12.0662 7.62412 12.0662C7.56768 12.0662 7.51124 12.0814 7.46286 12.1194V12.051C7.5193 12.0206 7.57574 12.0054 7.64025 12.0054C7.66444 12.0054 7.69669 12.0054 7.72088 12.013C7.74507 12.0206 7.76926 12.0282 7.78538 12.0434C7.80151 12.0586 7.81764 12.0738 7.83376 12.0966C7.84183 12.1194 7.84989 12.1422 7.84989 12.1726C7.84989 12.2714 7.79345 12.3399 7.68863 12.3627C7.71282 12.3627 7.737 12.3703 7.76119 12.3779C7.78538 12.3855 7.80151 12.4007 7.81764 12.4159C7.83376 12.4311 7.84989 12.4539 7.85795 12.4691C7.86601 12.4919 7.87408 12.5147 7.87408 12.5451C7.87408 12.5831 7.86601 12.6135 7.84989 12.6439C7.83376 12.6743 7.81764 12.6971 7.79345 12.7123C7.76926 12.7275 7.73701 12.7427 7.70475 12.758C7.6725 12.7656 7.64025 12.7732 7.59993 12.7732C7.53543 12.7732 7.47092 12.758 7.42255 12.7351L7.43061 12.6743Z" fill="black"/>
<path fill-rule="evenodd" clip-rule="evenodd" d="M5.375 13.0848L5.39112 13.1L7.5601 10.9183L7.53591 10.9031L5.375 13.0848Z" fill="black"/>
<path fill-rule="evenodd" clip-rule="evenodd" d="M5.12468 11.8078C5.11662 11.8078 5.10855 11.8078 5.10049 11.8154C5.09243 11.823 5.08437 11.823 5.08437 11.8306C5.0763 11.8382 5.0763 11.8458 5.06824 11.8534C5.06018 11.861 5.06018 11.8686 5.05211 11.8762C5.04405 11.8838 5.03599 11.8914 5.03599 11.899C5.02792 11.9066 5.01986 11.9142 5.0118 11.9142C5.00373 11.9142 4.98761 11.9218 4.97954 11.9142C4.95535 11.9142 4.93923 11.899 4.93117 11.8838C4.91504 11.8686 4.91504 11.8458 4.91504 11.823C4.91504 11.8078 4.9231 11.7926 4.93117 11.785C4.93923 11.7698 4.94729 11.7622 4.95535 11.7546L4.97954 11.7774C4.96342 11.7926 4.95535 11.8078 4.94729 11.8306C4.94729 11.8458 4.94729 11.8534 4.95535 11.8686C4.96342 11.8762 4.97148 11.8838 4.97954 11.8838C4.98761 11.8838 4.99567 11.8838 5.00373 11.8762C5.0118 11.8686 5.01986 11.8686 5.01986 11.861C5.02792 11.8534 5.02792 11.8458 5.03599 11.8382C5.04405 11.8306 5.04405 11.823 5.05211 11.8154C5.06018 11.8078 5.06018 11.8002 5.06824 11.7926C5.0763 11.785 5.08437 11.7774 5.09243 11.7774C5.10049 11.7774 5.11662 11.7698 5.12468 11.7774C5.14887 11.7774 5.165 11.7926 5.17306 11.8078C5.18112 11.823 5.18919 11.8458 5.18919 11.8686C5.18919 11.8838 5.18112 11.899 5.17306 11.9142C5.165 11.9294 5.14887 11.937 5.14081 11.9446L5.11662 11.9218C5.12468 11.9142 5.14081 11.9066 5.14081 11.899C5.14887 11.8914 5.15693 11.8762 5.15693 11.861C5.15693 11.8458 5.15693 11.8306 5.14887 11.823C5.14887 11.8154 5.14081 11.8078 5.12468 11.8078ZM5.24563 11.3745L5.34239 11.4277L5.32626 11.4581L5.08437 11.3289C5.09243 11.3213 5.09243 11.3137 5.10049 11.2985C5.10855 11.2909 5.11662 11.2757 5.11662 11.2681C5.13274 11.2376 5.15693 11.2224 5.18112 11.2148C5.20531 11.2072 5.22144 11.2148 5.24563 11.2224C5.26982 11.23 5.27788 11.2528 5.28595 11.2757C5.29401 11.2985 5.28594 11.3213 5.26982 11.3517C5.26175 11.3593 5.25369 11.3669 5.24563 11.3745ZM5.14081 11.2757C5.14081 11.2833 5.13274 11.2909 5.11662 11.3137L5.21338 11.3669C5.22144 11.3517 5.2295 11.3441 5.23757 11.3365C5.24563 11.3213 5.25369 11.3061 5.24563 11.2909C5.24563 11.2757 5.23756 11.2681 5.22144 11.2604C5.20531 11.2528 5.18919 11.2528 5.18112 11.2528C5.165 11.2452 5.15693 11.2605 5.14081 11.2757ZM5.55203 10.9716C5.52784 10.9412 5.51978 10.9032 5.52784 10.8728C5.5359 10.8347 5.55203 10.8043 5.58428 10.7815C5.61653 10.7587 5.65685 10.7511 5.6891 10.7587C5.72942 10.7663 5.76167 10.7815 5.78586 10.8195C5.81005 10.85 5.81811 10.888 5.81005 10.9184C5.80199 10.9564 5.78586 10.9868 5.75361 11.002C5.72136 11.0248 5.68104 11.0324 5.64879 11.0248C5.60847 11.0172 5.57622 11.002 5.55203 10.9716ZM5.58428 10.9488C5.60041 10.9716 5.6246 10.9868 5.65685 10.9944C5.6891 11.002 5.71329 10.9944 5.73748 10.9792C5.76167 10.964 5.7778 10.9412 5.7778 10.9108C5.78586 10.8804 5.7778 10.8576 5.75361 10.8347C5.73748 10.8119 5.71329 10.7967 5.68104 10.7891C5.64879 10.7815 5.6246 10.7891 5.60041 10.8043C5.57622 10.8195 5.56009 10.8423 5.56009 10.8728C5.56009 10.8956 5.56815 10.926 5.58428 10.9488ZM6.22127 10.5763L6.12451 10.5915L6.11645 10.5611L6.34222 10.5231L6.35028 10.5535L6.25353 10.5687L6.29384 10.7967L6.26159 10.8043L6.22127 10.5763Z" fill="black"/>
<path d="M5.16484 12.6288C5.19601 12.6288 5.22128 12.6049 5.22128 12.5756C5.22128 12.5462 5.19601 12.5223 5.16484 12.5223C5.13367 12.5223 5.1084 12.5462 5.1084 12.5756C5.1084 12.6049 5.13367 12.6288 5.16484 12.6288Z" fill="black"/>
<path d="M6.96366 10.8043C6.99484 10.8043 7.02011 10.7805 7.02011 10.7511C7.02011 10.7217 6.99484 10.6979 6.96366 10.6979C6.93249 10.6979 6.90723 10.7217 6.90723 10.7511C6.90723 10.7805 6.93249 10.8043 6.96366 10.8043Z" fill="black"/>
<path d="M12.9136 21.7586C13.4079 21.7586 13.8086 21.3774 13.8086 20.9072C13.8086 20.437 13.4079 20.0558 12.9136 20.0558C12.4193 20.0558 12.0186 20.437 12.0186 20.9072C12.0186 21.3774 12.4193 21.7586 12.9136 21.7586Z" fill="#BBBF98"/>
<path fill-rule="evenodd" clip-rule="evenodd" d="M13.4625 20.8919V20.9831V21.3556H13.5754V21.4088H13.4625V21.5761H13.398V21.4088H13.0916H13.0836H13.0029L13.4625 20.8919ZM13.14 21.3556H13.398V21.0592L13.14 21.3556ZM13.7851 21.4849C13.8415 21.5229 13.8899 21.5381 13.9463 21.5381C13.9705 21.5381 13.9947 21.5381 14.0108 21.5305C14.035 21.5229 14.0511 21.5153 14.0673 21.5077C14.0834 21.4925 14.0995 21.4773 14.1076 21.4621C14.1156 21.4468 14.1237 21.424 14.1237 21.3936C14.1237 21.348 14.1076 21.31 14.0673 21.2872C14.035 21.2644 13.9786 21.2492 13.906 21.2492H13.8496V21.196H13.906C13.9705 21.196 14.0189 21.1808 14.0511 21.158C14.0834 21.1352 14.0995 21.0972 14.0995 21.0516C14.0995 21.0135 14.0915 20.9831 14.0673 20.9603C14.0431 20.9375 14.0108 20.9299 13.9624 20.9299C13.9141 20.9299 13.8576 20.9451 13.8092 20.9755V20.9147C13.8576 20.8919 13.9141 20.8767 13.9705 20.8767C13.9947 20.8767 14.0189 20.8767 14.0431 20.8843C14.0673 20.8919 14.0915 20.8995 14.1076 20.9147C14.1237 20.9299 14.1398 20.9451 14.1479 20.9679C14.156 20.9907 14.164 21.0135 14.164 21.0363C14.164 21.1276 14.1156 21.1884 14.0189 21.2112C14.0431 21.2112 14.0673 21.2188 14.0834 21.2264C14.1076 21.234 14.1237 21.2492 14.1398 21.2644C14.156 21.2796 14.164 21.2948 14.1802 21.3176C14.1882 21.3404 14.1963 21.3632 14.1963 21.386C14.1963 21.4164 14.1882 21.4468 14.1802 21.4773C14.164 21.5001 14.1479 21.5229 14.1237 21.5381C14.0995 21.5533 14.0753 21.5685 14.0431 21.5761C14.0108 21.5837 13.9786 21.5913 13.9463 21.5913C13.8818 21.5913 13.8334 21.5761 13.7851 21.5533V21.4849Z" fill="black"/>
<path fill-rule="evenodd" clip-rule="evenodd" d="M11.8896 21.865L11.9058 21.8803L13.8974 19.881L13.8732 19.8582L11.8896 21.865Z" fill="black"/>
<path fill-rule="evenodd" clip-rule="evenodd" d="M11.6637 20.6943C11.6557 20.6943 11.6476 20.6943 11.6396 20.7019C11.6315 20.7019 11.6234 20.7095 11.6234 20.7171C11.6154 20.7247 11.6154 20.7323 11.6073 20.7399C11.5992 20.7475 11.5992 20.7551 11.5912 20.7627C11.5831 20.7703 11.5831 20.7779 11.5751 20.7855C11.567 20.7931 11.5589 20.7931 11.5509 20.8007C11.5428 20.8007 11.5347 20.8083 11.5186 20.8007C11.5025 20.8007 11.4864 20.7931 11.4702 20.7779C11.4622 20.7627 11.4541 20.7475 11.4541 20.7247C11.4541 20.7095 11.4622 20.7019 11.4702 20.6867C11.4783 20.6791 11.4864 20.6639 11.4944 20.6639L11.5186 20.6791C11.5025 20.6943 11.4944 20.7095 11.4944 20.7247C11.4944 20.7399 11.4944 20.7475 11.5025 20.7551C11.5105 20.7627 11.5186 20.7703 11.5267 20.7703C11.5347 20.7703 11.5428 20.7703 11.5509 20.7627C11.5589 20.7627 11.567 20.7551 11.567 20.7475C11.575 20.7399 11.5751 20.7323 11.5831 20.7247C11.5912 20.7171 11.5912 20.7095 11.5992 20.7019C11.6073 20.6943 11.6073 20.6867 11.6154 20.6791C11.6234 20.6715 11.6315 20.6715 11.6396 20.6639C11.6476 20.6639 11.6557 20.6563 11.6718 20.6639C11.696 20.6639 11.7121 20.6791 11.7202 20.6943C11.7283 20.7095 11.7363 20.7323 11.7283 20.7551C11.7283 20.7703 11.7202 20.7855 11.7121 20.8007C11.7041 20.8159 11.696 20.8235 11.6799 20.8312L11.6637 20.8083C11.6718 20.8007 11.6799 20.7931 11.6879 20.7855C11.696 20.7779 11.696 20.7627 11.7041 20.7551C11.7041 20.7399 11.7041 20.7323 11.696 20.7171C11.6879 20.7019 11.6799 20.6943 11.6637 20.6943ZM11.7766 20.299L11.8653 20.3446L11.8492 20.3674L11.6234 20.2458C11.6315 20.2382 11.6315 20.2306 11.6396 20.2154C11.6476 20.2078 11.6476 20.2002 11.6557 20.185C11.6718 20.1546 11.6879 20.1394 11.7121 20.1394C11.7363 20.1318 11.7524 20.1394 11.7766 20.147C11.7928 20.1546 11.8089 20.1698 11.8169 20.1926C11.825 20.2154 11.8169 20.2382 11.8008 20.261C11.7847 20.2838 11.7766 20.2914 11.7766 20.299ZM11.6799 20.2078C11.6799 20.2078 11.6718 20.223 11.6637 20.2382L11.7524 20.2838C11.7605 20.2686 11.7686 20.261 11.7766 20.2534C11.7847 20.2382 11.7928 20.223 11.7847 20.2078C11.7847 20.1926 11.7766 20.185 11.7605 20.1774C11.7444 20.1698 11.7363 20.1698 11.7202 20.1698C11.7041 20.1774 11.6879 20.1926 11.6799 20.2078ZM12.0588 19.9265C12.0347 19.8961 12.0266 19.8657 12.0347 19.8353C12.0427 19.8049 12.0588 19.7745 12.0911 19.7517C12.1234 19.7289 12.1556 19.7213 12.1879 19.7289C12.2201 19.7365 12.2524 19.7517 12.2766 19.7821C12.3007 19.8125 12.3088 19.8429 12.3007 19.8733C12.2927 19.9037 12.2766 19.9341 12.2443 19.9569C12.212 19.9797 12.1798 19.9873 12.1475 19.9797C12.1072 19.9721 12.083 19.9569 12.0588 19.9265ZM12.083 19.9037C12.0992 19.9265 12.1234 19.9417 12.1475 19.9417C12.1717 19.9493 12.1959 19.9417 12.2201 19.9265C12.2443 19.9113 12.2604 19.8885 12.2604 19.8657C12.2604 19.8429 12.2604 19.8201 12.2443 19.7973C12.2282 19.7745 12.204 19.7593 12.1798 19.7593C12.1556 19.7517 12.1314 19.7593 12.1072 19.7745C12.083 19.7897 12.0669 19.8125 12.0669 19.8353C12.0588 19.8581 12.0669 19.8809 12.083 19.9037ZM12.6717 19.5616L12.583 19.5768L12.5749 19.5464L12.7845 19.5084L12.7926 19.5388L12.7039 19.554L12.7442 19.7669L12.712 19.7745L12.6717 19.5616Z" fill="black"/>
<path d="M11.7049 21.4545C11.736 21.4545 11.7613 21.4306 11.7613 21.4012C11.7613 21.3718 11.736 21.348 11.7049 21.348C11.6737 21.348 11.6484 21.3718 11.6484 21.4012C11.6484 21.4306 11.6737 21.4545 11.7049 21.4545Z" fill="black"/>
<path d="M13.3494 19.7745C13.3806 19.7745 13.4059 19.7507 13.4059 19.7213C13.4059 19.6919 13.3806 19.6681 13.3494 19.6681C13.3182 19.6681 13.293 19.6919 13.293 19.7213C13.293 19.7507 13.3182 19.7745 13.3494 19.7745Z" fill="black"/>
<path fill-rule="evenodd" clip-rule="evenodd" d="M13.4625 20.8919V20.9831V21.3556H13.5754V21.4088H13.4625V21.5761H13.398V21.4088H13.0916H13.0836H13.0029L13.4625 20.8919ZM13.14 21.3556H13.398V21.0592L13.14 21.3556ZM13.7851 21.4849C13.8415 21.5229 13.8899 21.5381 13.9463 21.5381C13.9705 21.5381 13.9947 21.5381 14.0108 21.5305C14.035 21.5229 14.0511 21.5153 14.0673 21.5077C14.0834 21.4925 14.0995 21.4773 14.1076 21.4621C14.1156 21.4468 14.1237 21.424 14.1237 21.3936C14.1237 21.348 14.1076 21.31 14.0673 21.2872C14.035 21.2644 13.9786 21.2492 13.906 21.2492H13.8496V21.196H13.906C13.9705 21.196 14.0189 21.1808 14.0511 21.158C14.0834 21.1352 14.0995 21.0972 14.0995 21.0516C14.0995 21.0135 14.0915 20.9831 14.0673 20.9603C14.0431 20.9375 14.0108 20.9299 13.9624 20.9299C13.9141 20.9299 13.8576 20.9451 13.8092 20.9755V20.9147C13.8576 20.8919 13.9141 20.8767 13.9705 20.8767C13.9947 20.8767 14.0189 20.8767 14.0431 20.8843C14.0673 20.8919 14.0915 20.8995 14.1076 20.9147C14.1237 20.9299 14.1398 20.9451 14.1479 20.9679C14.156 20.9907 14.164 21.0135 14.164 21.0363C14.164 21.1276 14.1156 21.1884 14.0189 21.2112C14.0431 21.2112 14.0673 21.2188 14.0834 21.2264C14.1076 21.234 14.1237 21.2492 14.1398 21.2644C14.156 21.2796 14.164 21.2948 14.1802 21.3176C14.1882 21.3404 14.1963 21.3632 14.1963 21.386C14.1963 21.4164 14.1882 21.4468 14.1802 21.4773C14.164 21.5001 14.1479 21.5229 14.1237 21.5381C14.0995 21.5533 14.0753 21.5685 14.0431 21.5761C14.0108 21.5837 13.9786 21.5913 13.9463 21.5913C13.8818 21.5913 13.8334 21.5761 13.7851 21.5533V21.4849Z" fill="black"/>
<path fill-rule="evenodd" clip-rule="evenodd" d="M11.8896 21.865L11.9058 21.8803L13.8974 19.881L13.8732 19.8582L11.8896 21.865Z" fill="black"/>
<path fill-rule="evenodd" clip-rule="evenodd" d="M11.6637 20.6943C11.6557 20.6943 11.6476 20.6943 11.6396 20.7019C11.6315 20.7019 11.6234 20.7095 11.6234 20.7171C11.6154 20.7247 11.6154 20.7323 11.6073 20.7399C11.5992 20.7475 11.5992 20.7551 11.5912 20.7627C11.5831 20.7703 11.5831 20.7779 11.5751 20.7855C11.567 20.7931 11.5589 20.7931 11.5509 20.8007C11.5428 20.8007 11.5347 20.8083 11.5186 20.8007C11.5025 20.8007 11.4864 20.7931 11.4702 20.7779C11.4622 20.7627 11.4541 20.7475 11.4541 20.7247C11.4541 20.7095 11.4622 20.7019 11.4702 20.6867C11.4783 20.6791 11.4864 20.6639 11.4944 20.6639L11.5186 20.6791C11.5025 20.6943 11.4944 20.7095 11.4944 20.7247C11.4944 20.7399 11.4944 20.7475 11.5025 20.7551C11.5105 20.7627 11.5186 20.7703 11.5267 20.7703C11.5347 20.7703 11.5428 20.7703 11.5509 20.7627C11.5589 20.7627 11.567 20.7551 11.567 20.7475C11.575 20.7399 11.5751 20.7323 11.5831 20.7247C11.5912 20.7171 11.5912 20.7095 11.5992 20.7019C11.6073 20.6943 11.6073 20.6867 11.6154 20.6791C11.6234 20.6715 11.6315 20.6715 11.6396 20.6639C11.6476 20.6639 11.6557 20.6563 11.6718 20.6639C11.696 20.6639 11.7121 20.6791 11.7202 20.6943C11.7283 20.7095 11.7363 20.7323 11.7283 20.7551C11.7283 20.7703 11.7202 20.7855 11.7121 20.8007C11.7041 20.8159 11.696 20.8235 11.6799 20.8312L11.6637 20.8083C11.6718 20.8007 11.6799 20.7931 11.6879 20.7855C11.696 20.7779 11.696 20.7627 11.7041 20.7551C11.7041 20.7399 11.7041 20.7323 11.696 20.7171C11.6879 20.7019 11.6799 20.6943 11.6637 20.6943ZM11.7766 20.299L11.8653 20.3446L11.8492 20.3674L11.6234 20.2458C11.6315 20.2382 11.6315 20.2306 11.6396 20.2154C11.6476 20.2078 11.6476 20.2002 11.6557 20.185C11.6718 20.1546 11.6879 20.1394 11.7121 20.1394C11.7363 20.1318 11.7524 20.1394 11.7766 20.147C11.7928 20.1546 11.8089 20.1698 11.8169 20.1926C11.825 20.2154 11.8169 20.2382 11.8008 20.261C11.7847 20.2838 11.7766 20.2914 11.7766 20.299ZM11.6799 20.2078C11.6799 20.2078 11.6718 20.223 11.6637 20.2382L11.7524 20.2838C11.7605 20.2686 11.7686 20.261 11.7766 20.2534C11.7847 20.2382 11.7928 20.223 11.7847 20.2078C11.7847 20.1926 11.7766 20.185 11.7605 20.1774C11.7444 20.1698 11.7363 20.1698 11.7202 20.1698C11.7041 20.1774 11.6879 20.1926 11.6799 20.2078ZM12.0588 19.9265C12.0347 19.8961 12.0266 19.8657 12.0347 19.8353C12.0427 19.8049 12.0588 19.7745 12.0911 19.7517C12.1234 19.7289 12.1556 19.7213 12.1879 19.7289C12.2201 19.7365 12.2524 19.7517 12.2766 19.7821C12.3007 19.8125 12.3088 19.8429 12.3007 19.8733C12.2927 19.9037 12.2766 19.9341 12.2443 19.9569C12.212 19.9797 12.1798 19.9873 12.1475 19.9797C12.1072 19.9721 12.083 19.9569 12.0588 19.9265ZM12.083 19.9037C12.0992 19.9265 12.1234 19.9417 12.1475 19.9417C12.1717 19.9493 12.1959 19.9417 12.2201 19.9265C12.2443 19.9113 12.2604 19.8885 12.2604 19.8657C12.2604 19.8429 12.2604 19.8201 12.2443 19.7973C12.2282 19.7745 12.204 19.7593 12.1798 19.7593C12.1556 19.7517 12.1314 19.7593 12.1072 19.7745C12.083 19.7897 12.0669 19.8125 12.0669 19.8353C12.0588 19.8581 12.0669 19.8809 12.083 19.9037ZM12.6717 19.5616L12.583 19.5768L12.5749 19.5464L12.7845 19.5084L12.7926 19.5388L12.7039 19.554L12.7442 19.7669L12.712 19.7745L12.6717 19.5616Z" fill="black"/>
<path d="M11.7049 21.4545C11.736 21.4545 11.7613 21.4306 11.7613 21.4012C11.7613 21.3718 11.736 21.348 11.7049 21.348C11.6737 21.348 11.6484 21.3718 11.6484 21.4012C11.6484 21.4306 11.6737 21.4545 11.7049 21.4545Z" fill="black"/>
<path d="M13.3494 19.7745C13.3806 19.7745 13.4059 19.7507 13.4059 19.7213C13.4059 19.6919 13.3806 19.6681 13.3494 19.6681C13.3182 19.6681 13.293 19.6919 13.293 19.7213C13.293 19.7507 13.3182 19.7745 13.3494 19.7745Z" fill="black"/>
<path fill-rule="evenodd" clip-rule="evenodd" d="M15.2281 25.1643C16.6553 24.883 17.7035 24.0924 17.6712 22.2984L17.6067 10.8652C17.5664 8.94189 16.7843 8.62261 16.1876 7.756C15.9296 7.36831 15.986 7.14785 16.1312 6.89699C16.8246 6.60812 16.6956 5.95436 16.3166 5.61228C17.518 4.56322 15.1797 4.00068 12.027 3.81824L11.8819 4.0919C14.1557 4.21353 16.0828 4.54041 16.1634 5.02693C16.1957 5.22458 15.857 5.36902 15.6474 5.42983C13.2688 6.08359 4.76213 6.04558 2.47219 5.49065C2.39962 5.46784 1.94002 5.37662 2.01259 5.08775C2.10935 4.62404 4.2864 4.24394 6.71341 4.10711L6.51183 3.83344C3.18175 4.03869 0.593473 4.63924 1.82714 5.7111V5.73391C1.47236 6.09119 1.36754 6.72975 2.04484 7.00341C2.18998 7.25428 2.25448 7.47473 1.99646 7.87003C1.42398 8.74424 0.641852 9.07112 0.633789 10.9944L0.754736 22.4276C0.754736 24.214 1.75457 24.9894 3.23013 25.2555C7.21333 25.8636 11.2368 25.8104 15.2281 25.1643ZM16.0828 6.38006C15.9941 6.50169 15.8409 6.59292 15.6555 6.63853C13.2768 7.29229 4.77019 7.25428 2.48025 6.69934C2.42381 6.68414 2.35931 6.66133 2.30286 6.63853C2.0771 6.5321 1.97227 6.36486 2.00453 6.18242C2.02872 6.05318 2.09322 5.93916 2.17385 5.85554C2.28674 5.89355 2.41575 5.92395 2.52863 5.95436C4.76213 6.47889 7.18107 6.45608 9.37425 6.44848C11.8416 6.38006 14.6556 6.27364 15.978 5.74151C16.0586 5.81753 16.1312 5.93155 16.1634 6.06079C16.1796 6.17481 16.1473 6.28884 16.0828 6.38006ZM2.54476 7.18586C4.77825 7.756 7.16495 7.67998 9.37425 7.65717C11.6642 7.59636 14.2847 7.50514 15.6474 7.10224C15.5264 7.30749 15.4781 7.54315 15.6877 7.92324C16.236 9.02551 17.002 8.9951 17.0423 10.8728L17.1875 21.8118C17.2197 23.5527 16.5908 24.4269 15.1314 24.6853C11.0272 25.2631 7.5036 25.3011 3.33495 24.769C1.87552 24.5333 1.24659 23.6743 1.24659 21.9259L1.20627 10.9868C1.21434 9.10913 2.05291 9.02551 2.50444 8.01446C2.68183 7.67998 2.73827 7.51274 2.54476 7.18586Z" fill="white"/>
<path fill-rule="evenodd" clip-rule="evenodd" d="M14.4139 4.95851C13.535 4.82928 12.5674 4.75326 11.3096 4.70765L10.9951 4.98132C12.253 5.02693 13.4141 5.11055 14.2849 5.21698C14.7848 5.25499 14.7606 4.99652 14.4139 4.95851ZM7.22158 4.67725C5.95566 4.73046 4.77844 4.86729 3.85117 5.00413C3.44801 5.06494 3.50446 5.3158 4.0205 5.23978C5.02033 5.08775 6.28625 4.99652 7.61667 4.95851L7.22158 4.67725Z" fill="white"/>
<path fill-rule="evenodd" clip-rule="evenodd" d="M13.5506 16.1941C12.1879 16.5361 10.793 15.7684 10.4301 14.4912C10.0673 13.2065 10.8817 11.8914 12.2363 11.5493C13.599 11.2072 14.9939 11.975 15.3567 13.2521C15.7276 14.5293 14.9133 15.852 13.5506 16.1941ZM13.5103 16.0268C14.7762 15.7075 15.5261 14.4836 15.1955 13.2901C14.8568 12.0967 13.5586 11.3897 12.2927 11.7014C11.0268 12.0206 10.2769 13.2445 10.6075 14.438C10.9381 15.6315 12.2443 16.3461 13.5103 16.0268Z" fill="white"/>
<path fill-rule="evenodd" clip-rule="evenodd" d="M13.4058 15.6847C12.3415 15.9507 11.253 15.3578 10.9708 14.3543C10.6886 13.3509 11.3175 12.3246 12.3818 12.0586C13.4462 11.7925 14.5347 12.3855 14.8169 13.3889C15.1072 14.3847 14.4702 15.411 13.4058 15.6847ZM13.3736 15.5554C14.3654 15.3046 14.9459 14.3543 14.6879 13.4193C14.4218 12.4843 13.4139 11.9369 12.4221 12.1802C11.4304 12.4311 10.8498 13.3813 11.1078 14.3163C11.3739 15.2438 12.3818 15.7987 13.3736 15.5554Z" fill="white"/>
<path fill-rule="evenodd" clip-rule="evenodd" d="M5.10872 20.2914C3.98795 20.5727 2.84298 19.9417 2.54464 18.8851C2.2463 17.8284 2.91555 16.749 4.03633 16.4677C5.1571 16.1864 6.30207 16.8174 6.60041 17.874C6.89875 18.9307 6.2295 20.0102 5.10872 20.2914ZM5.06841 20.1546C6.10856 19.8961 6.72942 18.8851 6.44721 17.9045C6.17306 16.9238 5.10066 16.3385 4.06051 16.6045C3.02037 16.863 2.3995 17.874 2.68171 18.8547C2.96393 19.8353 4.02826 20.4207 5.06841 20.1546Z" fill="white"/>
<path fill-rule="evenodd" clip-rule="evenodd" d="M4.988 19.8733C4.11718 20.0937 3.2141 19.5996 2.98833 18.7786C2.7545 17.9576 3.27861 17.1062 4.14943 16.8934C5.02025 16.6729 5.92332 17.167 6.14909 17.988C6.38293 18.809 5.86688 19.6528 4.988 19.8733ZM4.96381 19.7668C5.77819 19.5616 6.26198 18.7786 6.04427 18.0108C5.82657 17.243 4.99606 16.7869 4.18168 16.9922C3.3673 17.1974 2.88351 17.9804 3.10122 18.7482C3.31892 19.516 4.14943 19.9721 4.96381 19.7668Z" fill="white"/>
<path fill-rule="evenodd" clip-rule="evenodd" d="M12.9217 15.6315C13.978 15.6315 14.8327 14.8333 14.8327 13.8602C14.8327 12.8872 13.9699 12.089 12.9217 12.089C11.8654 12.089 11.0107 12.8872 11.0107 13.8602C11.0107 14.8333 11.8735 15.6315 12.9217 15.6315Z" fill="white"/>
<path fill-rule="evenodd" clip-rule="evenodd" d="M4.56866 19.8581C5.43947 19.8581 6.14903 19.2043 6.14903 18.3985C6.14903 17.5927 5.43947 16.939 4.56866 16.939C3.69784 16.939 2.98828 17.5927 2.98828 18.3985C2.98828 19.2043 3.7059 19.8581 4.56866 19.8581Z" fill="white"/>
<path fill-rule="evenodd" clip-rule="evenodd" d="M9.87455 18.1477C10.4954 18.1477 11.0518 18.391 11.4469 18.7787H11.4307C10.4067 19.6301 10.0761 20.8996 10.5035 22.0171L10.5115 22.0399C10.31 22.1007 10.1003 22.1311 9.87455 22.1311C8.68926 22.1311 7.72168 21.2417 7.72168 20.1394C7.72168 19.0371 8.68926 18.1477 9.87455 18.1477Z" fill="white"/>
<path fill-rule="evenodd" clip-rule="evenodd" d="M9.31793 5.01936C10.5193 5.01936 11.503 4.10713 11.503 2.98966C11.503 1.87218 10.5193 0.959961 9.31793 0.959961C8.11652 0.959961 7.13281 1.87218 7.13281 2.98966C7.13281 4.10713 8.11652 5.01936 9.31793 5.01936Z" fill="white"/>
<path fill-rule="evenodd" clip-rule="evenodd" d="M9.29337 0.336548C10.8818 0.336548 12.1639 1.55284 12.1639 3.04281C12.1639 4.54037 10.8737 5.74907 9.29337 5.74907C7.70493 5.74907 6.42289 4.53277 6.42289 3.04281C6.41483 1.54524 7.70493 0.336548 9.29337 0.336548ZM9.29337 0.526594C7.81781 0.526594 6.62447 1.65167 6.62447 3.04281C6.62447 4.43395 7.81781 5.55902 9.29337 5.55902C10.7689 5.55902 11.9623 4.43395 11.9623 3.04281C11.9542 1.65927 10.7609 0.534196 9.29337 0.526594Z" fill="white"/>
<path fill-rule="evenodd" clip-rule="evenodd" d="M9.29331 0.929565C10.527 0.929565 11.5349 1.8798 11.5349 3.04288C11.5349 4.20597 10.527 5.1562 9.29331 5.1562C8.05965 5.1562 7.05176 4.20597 7.05176 3.04288C7.05176 1.8798 8.05159 0.929565 9.29331 0.929565ZM9.28525 1.0816C8.13222 1.0816 7.20496 1.95582 7.20496 3.04288C7.20496 4.12995 8.13222 5.00416 9.28525 5.00416C10.4383 5.00416 11.3655 4.12995 11.3655 3.04288C11.3736 1.96342 10.4383 1.0816 9.28525 1.0816Z" fill="white"/>
<path fill-rule="evenodd" clip-rule="evenodd" d="M9.29337 0.336548C10.8818 0.336548 12.1639 1.55284 12.1639 3.04281C12.1639 4.54037 10.8737 5.74907 9.29337 5.74907C7.70493 5.74907 6.42289 4.53277 6.42289 3.04281C6.41483 1.54524 7.70493 0.336548 9.29337 0.336548ZM9.29337 0.526594C7.81781 0.526594 6.62447 1.65167 6.62447 3.04281C6.62447 4.43395 7.81781 5.55902 9.29337 5.55902C10.7689 5.55902 11.9623 4.43395 11.9623 3.04281C11.9542 1.65927 10.7609 0.534196 9.29337 0.526594Z" fill="white"/>
<path fill-rule="evenodd" clip-rule="evenodd" d="M9.29331 0.929565C10.527 0.929565 11.5349 1.8798 11.5349 3.04288C11.5349 4.20597 10.527 5.1562 9.29331 5.1562C8.05965 5.1562 7.05176 4.20597 7.05176 3.04288C7.05176 1.8798 8.05159 0.929565 9.29331 0.929565ZM9.28525 1.0816C8.13222 1.0816 7.20496 1.95582 7.20496 3.04288C7.20496 4.12995 8.13222 5.00416 9.28525 5.00416C10.4383 5.00416 11.3655 4.12995 11.3655 3.04288C11.3736 1.96342 10.4383 1.0816 9.28525 1.0816Z" fill="white"/>
<path d="M9.34202 3.96271C9.83187 3.96271 10.229 3.58152 10.229 3.1113C10.229 2.64108 9.83187 2.25989 9.34202 2.25989C8.85218 2.25989 8.45508 2.64108 8.45508 3.1113C8.45508 3.58152 8.85218 3.96271 9.34202 3.96271Z" fill="#BBBF98"/>
<path fill-rule="evenodd" clip-rule="evenodd" d="M9.88245 3.0885V3.17972V3.55221H9.99534V3.60543H9.88245V3.77267H9.81795V3.60543H9.51155H9.50348H9.42285L9.88245 3.0885ZM9.55993 3.55221H9.81795V3.25574L9.55993 3.55221ZM10.205 3.68905C10.2614 3.71946 10.3098 3.74226 10.3662 3.74226C10.3904 3.74226 10.4146 3.74226 10.4307 3.73466C10.4549 3.72706 10.4711 3.71946 10.4872 3.71185C10.5033 3.69665 10.5194 3.68905 10.5275 3.66624C10.5356 3.65104 10.5436 3.62823 10.5436 3.59783C10.5436 3.55221 10.5275 3.51421 10.4872 3.4914C10.4549 3.46859 10.3985 3.45339 10.3259 3.45339H10.2695V3.40018H10.3259C10.3904 3.40018 10.4388 3.38497 10.4711 3.36217C10.5033 3.33936 10.5194 3.30135 10.5194 3.26334C10.5194 3.22534 10.5114 3.19493 10.4872 3.17212C10.463 3.14932 10.4307 3.14171 10.3824 3.14171C10.334 3.14171 10.2775 3.15692 10.2292 3.18733V3.12651C10.2775 3.1037 10.334 3.0885 10.3904 3.0885C10.4146 3.0885 10.4388 3.0885 10.463 3.0961C10.4872 3.10371 10.5114 3.11131 10.5275 3.12651C10.5436 3.14171 10.5598 3.15692 10.5678 3.17972C10.5759 3.20253 10.5839 3.22533 10.5839 3.24814C10.5839 3.33936 10.5356 3.40018 10.4388 3.42298C10.463 3.42298 10.4872 3.43058 10.5033 3.43819C10.5275 3.44579 10.5436 3.46099 10.5598 3.46859C10.5759 3.4838 10.584 3.499 10.592 3.52181C10.6001 3.54461 10.6081 3.55982 10.6081 3.59022C10.6081 3.62063 10.6001 3.65104 10.592 3.67384C10.5759 3.69665 10.5598 3.71945 10.5356 3.73466C10.5114 3.74986 10.4872 3.76507 10.4549 3.77267C10.4227 3.78027 10.3904 3.78787 10.3582 3.78787C10.2937 3.78787 10.2453 3.77267 10.1969 3.74986L10.205 3.68905Z" fill="black"/>
<path fill-rule="evenodd" clip-rule="evenodd" d="M8.32617 4.06152L8.3423 4.07672L10.3178 2.08503L10.2936 2.06982L8.32617 4.06152Z" fill="black"/>
<path fill-rule="evenodd" clip-rule="evenodd" d="M8.10002 2.89837C8.09195 2.89837 8.08389 2.89837 8.07583 2.89837C8.06777 2.89837 8.0597 2.90597 8.0597 2.91357C8.05164 2.92118 8.05164 2.92878 8.04357 2.93638C8.03551 2.94398 8.03551 2.95158 8.02745 2.95919C8.01939 2.96679 8.01938 2.97439 8.01132 2.98199C8.00326 2.98959 7.9952 2.98959 7.98713 2.9972C7.97907 2.9972 7.97101 3.0048 7.95488 2.9972C7.93875 2.9972 7.92263 2.98959 7.91456 2.97439C7.9065 2.95918 7.89844 2.94398 7.89844 2.92118C7.89844 2.90597 7.9065 2.89837 7.91456 2.88317C7.92263 2.87557 7.93069 2.86036 7.93875 2.86036L7.96294 2.87557C7.94682 2.88317 7.93875 2.89837 7.93875 2.92118C7.93875 2.93638 7.93875 2.94398 7.94682 2.95158C7.95488 2.95919 7.96294 2.96679 7.97101 2.96679C7.97907 2.96679 7.98713 2.96679 7.9952 2.96679C8.00326 2.96679 8.01132 2.95919 8.01132 2.95158C8.01938 2.94398 8.01939 2.93638 8.02745 2.92878C8.03551 2.92118 8.03551 2.91357 8.04357 2.90597C8.05164 2.89837 8.05164 2.89077 8.0597 2.88317C8.06776 2.87557 8.07583 2.87557 8.08389 2.86796C8.09195 2.86796 8.10002 2.86036 8.11614 2.86796C8.14033 2.86796 8.15646 2.88317 8.16452 2.89837C8.17258 2.91357 8.18065 2.93638 8.17258 2.95919C8.17258 2.97439 8.16452 2.98959 8.15646 3.0048C8.1484 3.02 8.14033 3.0276 8.12421 3.0352L8.10808 3.0124C8.11614 3.0048 8.12421 2.99719 8.13227 2.98959C8.14033 2.98199 8.14033 2.96679 8.1484 2.95919C8.1484 2.94398 8.1484 2.93638 8.14033 2.92118C8.12421 2.90597 8.11614 2.89837 8.10002 2.89837ZM8.2129 2.50308L8.3016 2.54869L8.28547 2.57149L8.06776 2.44986C8.07583 2.44226 8.07583 2.43466 8.08389 2.42706C8.09195 2.41946 8.09195 2.41186 8.10002 2.39665C8.11614 2.36625 8.13227 2.35104 8.15646 2.35104C8.18065 2.34344 8.19677 2.35104 8.2129 2.35864C8.22903 2.36625 8.24515 2.38145 8.25322 2.40425C8.26128 2.42706 8.25322 2.44986 8.23709 2.47267C8.22097 2.48787 8.2129 2.49548 8.2129 2.50308ZM8.11614 2.41186C8.11614 2.41186 8.10808 2.42706 8.10002 2.44226L8.18871 2.48787C8.19678 2.47267 8.20484 2.46507 8.2129 2.45747C8.22096 2.44226 8.22903 2.42706 8.22096 2.41186C8.22096 2.39665 8.2129 2.38905 8.19678 2.38145C8.18065 2.37385 8.17259 2.37385 8.15646 2.37385C8.14033 2.38905 8.12421 2.39665 8.11614 2.41186ZM8.49511 2.13059C8.47092 2.10018 8.46286 2.06978 8.47092 2.03937C8.47899 2.00896 8.49511 1.97855 8.52736 1.95575C8.55962 1.93294 8.59187 1.92534 8.62412 1.93294C8.65638 1.94055 8.68863 1.95575 8.71282 1.98616C8.73701 2.01656 8.74507 2.04697 8.73701 2.07738C8.72894 2.10778 8.71282 2.13819 8.68057 2.15339C8.64831 2.1762 8.61606 2.1838 8.58381 2.1762C8.54349 2.1762 8.51124 2.161 8.49511 2.13059ZM8.5193 2.11539C8.53543 2.13819 8.55962 2.15339 8.58381 2.15339C8.608 2.161 8.63219 2.1534 8.65637 2.13819C8.68056 2.12299 8.69669 2.10018 8.69669 2.07738C8.69669 2.05457 8.69669 2.03177 8.68057 2.00896C8.66444 1.98616 8.64025 1.97095 8.61606 1.97095C8.59187 1.96335 8.56768 1.97095 8.54349 1.98616C8.5193 2.00136 8.51124 2.02416 8.50318 2.04697C8.49511 2.06978 8.50318 2.09258 8.5193 2.11539ZM9.09985 1.77331L9.01115 1.78851L9.00309 1.7581L9.21273 1.72009L9.2208 1.7505L9.1321 1.7657L9.17242 1.97855L9.14016 1.98616L9.09985 1.77331Z" fill="black"/>
<path d="M8.14043 3.65099C8.1716 3.65099 8.19687 3.62716 8.19687 3.59777C8.19687 3.56838 8.1716 3.54456 8.14043 3.54456C8.10925 3.54456 8.08398 3.56838 8.08398 3.59777C8.08398 3.62716 8.10925 3.65099 8.14043 3.65099Z" fill="black"/>
<path d="M9.83463 1.93359C9.83466 1.9042 9.80941 1.88035 9.77824 1.88032C9.74707 1.88029 9.72177 1.90409 9.72174 1.93348C9.72171 1.96287 9.74695 1.98672 9.77812 1.98675C9.8093 1.98678 9.83459 1.96298 9.83463 1.93359Z" fill="black"/>
<path fill-rule="evenodd" clip-rule="evenodd" d="M9.88245 3.0885V3.17972V3.55221H9.99534V3.60543H9.88245V3.77267H9.81795V3.60543H9.51155H9.50348H9.42285L9.88245 3.0885ZM9.55993 3.55221H9.81795V3.25574L9.55993 3.55221ZM10.205 3.68905C10.2614 3.71946 10.3098 3.74226 10.3662 3.74226C10.3904 3.74226 10.4146 3.74226 10.4307 3.73466C10.4549 3.72706 10.4711 3.71946 10.4872 3.71185C10.5033 3.69665 10.5194 3.68905 10.5275 3.66624C10.5356 3.65104 10.5436 3.62823 10.5436 3.59783C10.5436 3.55221 10.5275 3.51421 10.4872 3.4914C10.4549 3.46859 10.3985 3.45339 10.3259 3.45339H10.2695V3.40018H10.3259C10.3904 3.40018 10.4388 3.38497 10.4711 3.36217C10.5033 3.33936 10.5194 3.30135 10.5194 3.26334C10.5194 3.22534 10.5114 3.19493 10.4872 3.17212C10.463 3.14932 10.4307 3.14171 10.3824 3.14171C10.334 3.14171 10.2775 3.15692 10.2292 3.18733V3.12651C10.2775 3.1037 10.334 3.0885 10.3904 3.0885C10.4146 3.0885 10.4388 3.0885 10.463 3.0961C10.4872 3.10371 10.5114 3.11131 10.5275 3.12651C10.5436 3.14171 10.5598 3.15692 10.5678 3.17972C10.5759 3.20253 10.5839 3.22533 10.5839 3.24814C10.5839 3.33936 10.5356 3.40018 10.4388 3.42298C10.463 3.42298 10.4872 3.43058 10.5033 3.43819C10.5275 3.44579 10.5436 3.46099 10.5598 3.46859C10.5759 3.4838 10.584 3.499 10.592 3.52181C10.6001 3.54461 10.6081 3.55982 10.6081 3.59022C10.6081 3.62063 10.6001 3.65104 10.592 3.67384C10.5759 3.69665 10.5598 3.71945 10.5356 3.73466C10.5114 3.74986 10.4872 3.76507 10.4549 3.77267C10.4227 3.78027 10.3904 3.78787 10.3582 3.78787C10.2937 3.78787 10.2453 3.77267 10.1969 3.74986L10.205 3.68905Z" fill="black"/>
<path fill-rule="evenodd" clip-rule="evenodd" d="M8.32617 4.06152L8.3423 4.07672L10.3178 2.08503L10.2936 2.06982L8.32617 4.06152Z" fill="black"/>
<path fill-rule="evenodd" clip-rule="evenodd" d="M8.10002 2.89837C8.09195 2.89837 8.08389 2.89837 8.07583 2.89837C8.06777 2.89837 8.0597 2.90597 8.0597 2.91357C8.05164 2.92118 8.05164 2.92878 8.04357 2.93638C8.03551 2.94398 8.03551 2.95158 8.02745 2.95919C8.01939 2.96679 8.01938 2.97439 8.01132 2.98199C8.00326 2.98959 7.9952 2.98959 7.98713 2.9972C7.97907 2.9972 7.97101 3.0048 7.95488 2.9972C7.93875 2.9972 7.92263 2.98959 7.91456 2.97439C7.9065 2.95918 7.89844 2.94398 7.89844 2.92118C7.89844 2.90597 7.9065 2.89837 7.91456 2.88317C7.92263 2.87557 7.93069 2.86036 7.93875 2.86036L7.96294 2.87557C7.94682 2.88317 7.93875 2.89837 7.93875 2.92118C7.93875 2.93638 7.93875 2.94398 7.94682 2.95158C7.95488 2.95919 7.96294 2.96679 7.97101 2.96679C7.97907 2.96679 7.98713 2.96679 7.9952 2.96679C8.00326 2.96679 8.01132 2.95919 8.01132 2.95158C8.01938 2.94398 8.01939 2.93638 8.02745 2.92878C8.03551 2.92118 8.03551 2.91357 8.04357 2.90597C8.05164 2.89837 8.05164 2.89077 8.0597 2.88317C8.06776 2.87557 8.07583 2.87557 8.08389 2.86796C8.09195 2.86796 8.10002 2.86036 8.11614 2.86796C8.14033 2.86796 8.15646 2.88317 8.16452 2.89837C8.17258 2.91357 8.18065 2.93638 8.17258 2.95919C8.17258 2.97439 8.16452 2.98959 8.15646 3.0048C8.1484 3.02 8.14033 3.0276 8.12421 3.0352L8.10808 3.0124C8.11614 3.0048 8.12421 2.99719 8.13227 2.98959C8.14033 2.98199 8.14033 2.96679 8.1484 2.95919C8.1484 2.94398 8.1484 2.93638 8.14033 2.92118C8.12421 2.90597 8.11614 2.89837 8.10002 2.89837ZM8.2129 2.50308L8.3016 2.54869L8.28547 2.57149L8.06776 2.44986C8.07583 2.44226 8.07583 2.43466 8.08389 2.42706C8.09195 2.41946 8.09195 2.41186 8.10002 2.39665C8.11614 2.36625 8.13227 2.35104 8.15646 2.35104C8.18065 2.34344 8.19677 2.35104 8.2129 2.35864C8.22903 2.36625 8.24515 2.38145 8.25322 2.40425C8.26128 2.42706 8.25322 2.44986 8.23709 2.47267C8.22097 2.48787 8.2129 2.49548 8.2129 2.50308ZM8.11614 2.41186C8.11614 2.41186 8.10808 2.42706 8.10002 2.44226L8.18871 2.48787C8.19678 2.47267 8.20484 2.46507 8.2129 2.45747C8.22096 2.44226 8.22903 2.42706 8.22096 2.41186C8.22096 2.39665 8.2129 2.38905 8.19678 2.38145C8.18065 2.37385 8.17259 2.37385 8.15646 2.37385C8.14033 2.38905 8.12421 2.39665 8.11614 2.41186ZM8.49511 2.13059C8.47092 2.10018 8.46286 2.06978 8.47092 2.03937C8.47899 2.00896 8.49511 1.97855 8.52736 1.95575C8.55962 1.93294 8.59187 1.92534 8.62412 1.93294C8.65638 1.94055 8.68863 1.95575 8.71282 1.98616C8.73701 2.01656 8.74507 2.04697 8.73701 2.07738C8.72894 2.10778 8.71282 2.13819 8.68057 2.15339C8.64831 2.1762 8.61606 2.1838 8.58381 2.1762C8.54349 2.1762 8.51124 2.161 8.49511 2.13059ZM8.5193 2.11539C8.53543 2.13819 8.55962 2.15339 8.58381 2.15339C8.608 2.161 8.63219 2.1534 8.65637 2.13819C8.68056 2.12299 8.69669 2.10018 8.69669 2.07738C8.69669 2.05457 8.69669 2.03177 8.68057 2.00896C8.66444 1.98616 8.64025 1.97095 8.61606 1.97095C8.59187 1.96335 8.56768 1.97095 8.54349 1.98616C8.5193 2.00136 8.51124 2.02416 8.50318 2.04697C8.49511 2.06978 8.50318 2.09258 8.5193 2.11539ZM9.09985 1.77331L9.01115 1.78851L9.00309 1.7581L9.21273 1.72009L9.2208 1.7505L9.1321 1.7657L9.17242 1.97855L9.14016 1.98616L9.09985 1.77331Z" fill="black"/>
<path d="M8.14043 3.65099C8.1716 3.65099 8.19687 3.62716 8.19687 3.59777C8.19687 3.56838 8.1716 3.54456 8.14043 3.54456C8.10925 3.54456 8.08398 3.56838 8.08398 3.59777C8.08398 3.62716 8.10925 3.65099 8.14043 3.65099Z" fill="black"/>
<path d="M9.83463 1.93359C9.83466 1.9042 9.80941 1.88035 9.77824 1.88032C9.74707 1.88029 9.72177 1.90409 9.72174 1.93348C9.72171 1.96287 9.74695 1.98672 9.77812 1.98675C9.8093 1.98678 9.83459 1.96298 9.83463 1.93359Z" fill="black"/>
</svg>
