<svg width="41" height="59" viewBox="0 0 41 59" fill="none" xmlns="http://www.w3.org/2000/svg">
<path fill-rule="evenodd" clip-rule="evenodd" d="M21.1113 19.4811C23.6781 19.4811 25.7544 21.8303 25.7544 24.7237C25.7544 27.6172 23.6781 29.9664 21.1113 29.9664C18.5445 29.9664 16.4683 27.6172 16.4683 24.7237C16.4616 21.8303 18.5445 19.4811 21.1113 19.4811ZM21.1113 20.0047C18.7999 20.0047 16.9319 22.1196 16.9319 24.7237C16.9319 27.3278 18.8066 29.4428 21.1113 29.4428C23.4228 29.4428 25.2907 27.3278 25.2907 24.7237C25.2907 22.1196 23.416 20.0047 21.1113 20.0047Z" fill="white"/>
<path fill-rule="evenodd" clip-rule="evenodd" d="M18.3897 28.816C17.9999 30.8276 12.6648 30.5245 13.3703 32.5912C16.2395 38.1439 25.8548 38.6468 28.7374 32.5361C29.3556 30.5658 24.2825 30.8276 23.9801 28.7677C23.9801 28.7402 23.9734 28.7195 23.9734 28.692L23.6307 29.0089C23.6307 29.0433 23.6374 29.0778 23.6441 29.1122C24.1548 31.2478 29.033 31.0136 28.2334 32.5981C25.4382 37.7375 16.6964 37.4963 13.8743 32.5981C13.162 30.9585 18.1746 31.303 18.7525 29.1329L18.3897 28.816Z" fill="white"/>
<path fill-rule="evenodd" clip-rule="evenodd" d="M21.0037 15.637C26.7621 15.637 31.4253 20.418 31.4253 26.3221C31.4253 32.2261 26.7621 37.0072 21.0037 37.0072C15.2452 37.0072 10.582 32.2261 10.582 26.3221C10.582 20.4249 15.2452 15.637 21.0037 15.637ZM21.0037 16.2363C15.5677 16.2363 11.1599 20.7556 11.1599 26.329C11.1599 31.9023 15.5677 36.4147 21.0037 36.4147C26.4396 36.4147 30.8474 31.8954 30.8474 26.3221C30.8474 20.7487 26.4396 16.2363 21.0037 16.2363Z" fill="white"/>
</svg>
