<svg width="16" height="16" viewBox="0 0 16 16" fill="none" xmlns="http://www.w3.org/2000/svg">
<g clip-path="url(#clip0)">
<path d="M9.17674 1.00085H6.67675C6.53876 1.00085 6.42676 1.11286 6.42676 1.25084C6.42676 1.38883 6.53876 1.50083 6.67675 1.50083H9.17674C9.31473 1.50083 9.42673 1.38883 9.42673 1.25084C9.42673 1.11286 9.31473 1.00085 9.17674 1.00085Z" fill="#203200"/>
<path d="M10.9267 1.00085H10.6767C10.5388 1.00085 10.4268 1.11286 10.4268 1.25084C10.4268 1.38883 10.5388 1.50083 10.6767 1.50083H10.9267C11.0647 1.50083 11.1767 1.38883 11.1767 1.25084C11.1767 1.11286 11.0647 1.00085 10.9267 1.00085Z" fill="#203200"/>
<path d="M8.23724 13.0009H7.61649C7.23625 13.0009 6.92676 13.3103 6.92676 13.6906V13.8114C6.92676 14.1916 7.23625 14.5009 7.61626 14.5009H8.237C8.61725 14.5009 8.92674 14.1916 8.92674 13.8114V13.6906C8.92674 13.3103 8.61725 13.0009 8.23724 13.0009ZM8.42676 13.8114C8.42676 13.9159 8.34177 14.0008 8.23727 14.0008H7.61649C7.51176 14.0008 7.42674 13.9159 7.42674 13.8114V13.6906C7.42674 13.5859 7.51173 13.5008 7.61649 13.5008H8.237C8.34177 13.5008 8.42676 13.5858 8.42676 13.6906V13.8114Z" fill="#203200"/>
<path d="M11.2733 0.250854H4.58051C4.08226 0.250854 3.67676 0.656353 3.67676 1.1546V14.3471C3.67676 14.8454 4.08226 15.2509 4.58051 15.2509H11.273C11.7712 15.2509 12.1767 14.8454 12.1767 14.3474V1.1546C12.1768 0.656353 11.7713 0.250854 11.2733 0.250854ZM11.6768 14.3471C11.6768 14.5696 11.4958 14.7508 11.2733 14.7508H4.58051C4.35776 14.7508 4.17677 14.5696 4.17677 14.3473V1.1546C4.17677 0.932095 4.35776 0.750864 4.58051 0.750864H11.273C11.4957 0.750864 11.6767 0.932124 11.6767 1.1546V14.3471H11.6768Z" fill="#203200"/>
<path d="M11.9267 1.75085H3.92675C3.78876 1.75085 3.67676 1.86286 3.67676 2.00085V12.5009C3.67676 12.6389 3.78876 12.7509 3.92675 12.7509H11.9268C12.0647 12.7509 12.1767 12.6389 12.1767 12.5009V2.00085C12.1767 1.86286 12.0647 1.75085 11.9267 1.75085ZM11.6767 12.2509H4.17674V2.25087H11.6767V12.2509Z" fill="#203200"/>
</g>
<defs>
<clipPath id="clip0">
<rect width="15" height="15" fill="white" transform="translate(0.426758 0.250854)"/>
</clipPath>
</defs>
</svg>
