<svg width="12" height="16" viewBox="0 0 12 16" fill="none" xmlns="http://www.w3.org/2000/svg">
<path d="M8.77164 5.63919V2.77006C8.77164 1.31273 7.49534 0.126953 5.92681 0.126953C4.35827 0.126953 3.08198 1.31273 3.08198 2.77006V5.63919C1.68129 6.56557 0.754395 8.15299 0.754395 9.95454C0.754395 12.8066 3.07474 15.127 5.92681 15.127C8.77888 15.127 11.0992 12.8066 11.0992 9.95454C11.0992 8.15299 10.1723 6.56557 8.77164 5.63919ZM3.59922 5.33997V2.77006C3.59922 1.59799 4.64327 0.644194 5.92681 0.644194C7.21034 0.644194 8.2544 1.59799 8.2544 2.77006V5.34023C8.20577 5.31566 8.15612 5.29394 8.10698 5.27092C8.00534 5.22333 7.90215 5.17885 7.79715 5.13773C7.72965 5.11135 7.66189 5.08652 7.59362 5.06299C7.52638 5.03997 7.45965 5.01695 7.39138 4.99678C7.27836 4.96316 7.16405 4.93445 7.04896 4.90859C6.99905 4.89747 6.94888 4.88687 6.89845 4.87704C6.76319 4.85092 6.62715 4.82971 6.49008 4.81445C6.45905 4.81109 6.42802 4.80902 6.39698 4.80618C6.24052 4.79144 6.08405 4.78213 5.92681 4.78213C5.76957 4.78213 5.6131 4.79144 5.45715 4.80592C5.42612 4.80876 5.39483 4.81083 5.36405 4.81419C5.22698 4.82945 5.09095 4.85066 4.95569 4.87678C4.90526 4.88635 4.85508 4.89721 4.80517 4.90833C4.69008 4.93419 4.57577 4.9629 4.46276 4.99652C4.39448 5.01669 4.3275 5.03997 4.26052 5.06273C4.19224 5.08626 4.12422 5.11109 4.05698 5.13747C3.95172 5.17833 3.84879 5.22307 3.74715 5.27066C3.6975 5.29368 3.64784 5.3154 3.59922 5.33997ZM5.92681 14.6097C3.36 14.6097 1.27164 12.5213 1.27164 9.95454C1.27164 8.26394 2.18069 6.78514 3.53276 5.96971C3.77069 5.82644 4.01922 5.70566 4.27577 5.60738C4.32129 5.59006 4.36707 5.57299 4.4131 5.55695C4.48371 5.53238 4.55457 5.50885 4.62621 5.48764C4.71414 5.46204 4.80336 5.43928 4.89336 5.41885C4.95905 5.40385 5.025 5.39066 5.09121 5.3785C5.18664 5.36118 5.28284 5.34566 5.38034 5.33428C5.42431 5.32885 5.46853 5.32419 5.51276 5.32031C5.64957 5.30816 5.78715 5.29937 5.92681 5.29937C6.06646 5.29937 6.20405 5.30816 6.34086 5.32031C6.38508 5.32445 6.42905 5.32911 6.47327 5.33428C6.57077 5.34566 6.66698 5.36118 6.76241 5.3785C6.82862 5.39066 6.89457 5.40385 6.96026 5.41885C7.05026 5.43928 7.13948 5.46204 7.22741 5.48764C7.29905 5.50859 7.36991 5.53238 7.44052 5.55695C7.48681 5.57299 7.53233 5.59006 7.57784 5.60738C7.83439 5.70566 8.08293 5.82644 8.32086 5.96971C9.67293 6.78514 10.582 8.26394 10.582 9.95454C10.582 12.5213 8.49362 14.6097 5.92681 14.6097Z" fill="#646F4F"/>
</svg>
